<?xml version="1.0" encoding="UTF-8"?>
<svg version="1.1" xmlns="http://www.w3.org/2000/svg" width="1024" height="1024">
<path d="M0 0 C1.16212006 0.00090637 1.16212006 0.00090637 2.34771729 0.00183105 C66.18641047 0.1354564 129.5231754 13.88347397 187.6875 40.1875 C188.67298828 40.63206543 189.65847656 41.07663086 190.67382812 41.53466797 C220.5838241 55.15137771 248.60018228 72.22913042 274.6875 92.1875 C275.32623047 92.6731543 275.96496094 93.15880859 276.62304688 93.65917969 C298.04536576 109.99455519 319.2423675 128.38390286 336.72265625 148.94140625 C338.8772621 151.40442486 341.10517577 153.78671263 343.34570312 156.17138672 C349.41373061 162.63462987 355.19618508 169.22117169 360.6875 176.1875 C361.17766602 176.79980469 361.66783203 177.41210938 362.17285156 178.04296875 C377.64798972 197.37987854 391.56362091 217.58627375 403.6875 239.1875 C404.54190674 240.70102051 404.54190674 240.70102051 405.41357422 242.24511719 C434.69668191 294.41347842 452.31736478 351.11007535 460.6875 410.1875 C460.86829102 411.4573877 461.04908203 412.72727539 461.23535156 414.03564453 C466.24181987 451.29551352 465.98483794 490.97865838 460.6875 528.1875 C460.58804077 528.88949524 460.48858154 529.59149048 460.3861084 530.3147583 C449.28906094 607.97912341 421.03555676 682.29964943 373.6875 745.1875 C373.01726807 746.0851709 373.01726807 746.0851709 372.33349609 747.00097656 C366.10054177 755.33516521 359.48276715 763.31045152 352.6875 771.1875 C352.04941406 771.92742188 351.41132812 772.66734375 350.75390625 773.4296875 C349.07627489 775.35915729 347.38317606 777.27387305 345.6875 779.1875 C345.06319092 779.89664551 344.43888184 780.60579102 343.7956543 781.33642578 C338.26834498 787.55569475 332.51503889 793.51544055 326.62133789 799.3840332 C325.11943075 800.88054925 323.62298938 802.382383 322.12695312 803.88476562 C316.81969688 809.1959586 311.41634961 814.32883496 305.6875 819.1875 C304.72328125 820.033125 303.7590625 820.87875 302.765625 821.75 C293.11592031 830.06687255 282.95357636 837.65222042 272.6875 845.1875 C271.97609863 845.7148877 271.26469727 846.24227539 270.53173828 846.78564453 C208.93193156 892.33657312 135.05083043 918.50996505 59.6875 929.1875 C58.4176123 929.36829102 57.14772461 929.54908203 55.83935547 929.73535156 C18.57948648 934.74181987 -21.10365838 934.48483794 -58.3125 929.1875 C-59.01449524 929.08804077 -59.71649048 928.98858154 -60.4397583 928.8861084 C-122.47810081 920.02178008 -182.44868623 900.47411531 -236.3125 868.1875 C-237.21000977 867.65415039 -238.10751953 867.12080078 -239.03222656 866.57128906 C-251.60415045 859.07137746 -263.61346859 850.98395792 -275.3125 842.1875 C-276.23264893 841.49696533 -276.23264893 841.49696533 -277.17138672 840.79248047 C-287.6711094 832.88204933 -297.8529504 824.66490663 -307.51171875 815.7421875 C-308.99192978 814.39203686 -310.47730195 813.04663283 -312.00024414 811.74487305 C-317.87397076 806.7237964 -323.33620409 801.3160547 -328.78540039 795.8449707 C-330.37209946 794.25291034 -331.96407742 792.6662701 -333.55664062 791.08007812 C-339.01871457 785.62183909 -344.32214033 780.08519779 -349.3125 774.1875 C-350.158125 773.22328125 -351.00375 772.2590625 -351.875 771.265625 C-360.19112048 761.6167929 -367.80434076 751.47288743 -375.3125 741.1875 C-375.91529785 740.3629834 -376.5180957 739.5384668 -377.13916016 738.68896484 C-386.36877963 725.98846359 -394.61201021 712.86543555 -402.3125 699.1875 C-402.88500488 698.17413574 -403.45750977 697.16077148 -404.04736328 696.11669922 C-433.32561506 643.95243888 -450.94321996 587.25888864 -459.3125 528.1875 C-459.49329102 526.9176123 -459.67408203 525.64772461 -459.86035156 524.33935547 C-464.86681987 487.07948648 -464.60983794 447.39634162 -459.3125 410.1875 C-459.21304077 409.48550476 -459.11358154 408.78350952 -459.0111084 408.0602417 C-447.91406094 330.39587659 -419.66055676 256.07535057 -372.3125 193.1875 C-371.86567871 192.58905273 -371.41885742 191.99060547 -370.95849609 191.37402344 C-364.72554177 183.03983479 -358.10776715 175.06454848 -351.3125 167.1875 C-350.35537109 166.07761719 -350.35537109 166.07761719 -349.37890625 164.9453125 C-347.70126202 163.01582791 -346.01092452 161.09871119 -344.3125 159.1875 C-343.67441406 158.46820313 -343.03632813 157.74890625 -342.37890625 157.0078125 C-316.78948588 128.36644291 -316.78948588 128.36644291 -303.28125 116.87890625 C-301.03468493 114.94882158 -298.86666096 112.94331861 -296.6875 110.9375 C-290.48654486 105.35096877 -283.93225475 100.26253139 -277.3125 95.1875 C-276.37229004 94.46191895 -276.37229004 94.46191895 -275.41308594 93.72167969 C-197.64747514 33.82594997 -100.50581733 0.01309922 0 0 Z " fill="#DE2821" transform="translate(511.3125,58.8125)"/>
<path d="M0 0 C1.16212006 0.00090637 1.16212006 0.00090637 2.34771729 0.00183105 C66.18641047 0.1354564 129.5231754 13.88347397 187.6875 40.1875 C188.67298828 40.63206543 189.65847656 41.07663086 190.67382812 41.53466797 C220.5838241 55.15137771 248.60018228 72.22913042 274.6875 92.1875 C275.32623047 92.6731543 275.96496094 93.15880859 276.62304688 93.65917969 C298.04536576 109.99455519 319.2423675 128.38390286 336.72265625 148.94140625 C338.8772621 151.40442486 341.10517577 153.78671263 343.34570312 156.17138672 C349.41373061 162.63462987 355.19618508 169.22117169 360.6875 176.1875 C361.17766602 176.79980469 361.66783203 177.41210938 362.17285156 178.04296875 C377.64798972 197.37987854 391.56362091 217.58627375 403.6875 239.1875 C404.54190674 240.70102051 404.54190674 240.70102051 405.41357422 242.24511719 C434.69668191 294.41347842 452.31736478 351.11007535 460.6875 410.1875 C460.86829102 411.4573877 461.04908203 412.72727539 461.23535156 414.03564453 C466.24181987 451.29551352 465.98483794 490.97865838 460.6875 528.1875 C460.58804077 528.88949524 460.48858154 529.59149048 460.3861084 530.3147583 C449.28906094 607.97912341 421.03555676 682.29964943 373.6875 745.1875 C373.01726807 746.0851709 373.01726807 746.0851709 372.33349609 747.00097656 C366.10054177 755.33516521 359.48276715 763.31045152 352.6875 771.1875 C352.04941406 771.92742188 351.41132812 772.66734375 350.75390625 773.4296875 C349.07627489 775.35915729 347.38317606 777.27387305 345.6875 779.1875 C345.06319092 779.89664551 344.43888184 780.60579102 343.7956543 781.33642578 C338.26834498 787.55569475 332.51503889 793.51544055 326.62133789 799.3840332 C325.11943075 800.88054925 323.62298938 802.382383 322.12695312 803.88476562 C316.81969688 809.1959586 311.41634961 814.32883496 305.6875 819.1875 C304.72328125 820.033125 303.7590625 820.87875 302.765625 821.75 C293.11592031 830.06687255 282.95357636 837.65222042 272.6875 845.1875 C271.97609863 845.7148877 271.26469727 846.24227539 270.53173828 846.78564453 C208.93193156 892.33657312 135.05083043 918.50996505 59.6875 929.1875 C58.4176123 929.36829102 57.14772461 929.54908203 55.83935547 929.73535156 C18.57948648 934.74181987 -21.10365838 934.48483794 -58.3125 929.1875 C-59.01449524 929.08804077 -59.71649048 928.98858154 -60.4397583 928.8861084 C-122.47810081 920.02178008 -182.44868623 900.47411531 -236.3125 868.1875 C-237.21000977 867.65415039 -238.10751953 867.12080078 -239.03222656 866.57128906 C-251.60415045 859.07137746 -263.61346859 850.98395792 -275.3125 842.1875 C-276.23264893 841.49696533 -276.23264893 841.49696533 -277.17138672 840.79248047 C-287.6711094 832.88204933 -297.8529504 824.66490663 -307.51171875 815.7421875 C-308.99192978 814.39203686 -310.47730195 813.04663283 -312.00024414 811.74487305 C-317.87397076 806.7237964 -323.33620409 801.3160547 -328.78540039 795.8449707 C-330.37209946 794.25291034 -331.96407742 792.6662701 -333.55664062 791.08007812 C-339.01871457 785.62183909 -344.32214033 780.08519779 -349.3125 774.1875 C-350.158125 773.22328125 -351.00375 772.2590625 -351.875 771.265625 C-360.19112048 761.6167929 -367.80434076 751.47288743 -375.3125 741.1875 C-375.91529785 740.3629834 -376.5180957 739.5384668 -377.13916016 738.68896484 C-386.36877963 725.98846359 -394.61201021 712.86543555 -402.3125 699.1875 C-402.88500488 698.17413574 -403.45750977 697.16077148 -404.04736328 696.11669922 C-433.32561506 643.95243888 -450.94321996 587.25888864 -459.3125 528.1875 C-459.49329102 526.9176123 -459.67408203 525.64772461 -459.86035156 524.33935547 C-464.86681987 487.07948648 -464.60983794 447.39634162 -459.3125 410.1875 C-459.21304077 409.48550476 -459.11358154 408.78350952 -459.0111084 408.0602417 C-447.91406094 330.39587659 -419.66055676 256.07535057 -372.3125 193.1875 C-371.86567871 192.58905273 -371.41885742 191.99060547 -370.95849609 191.37402344 C-364.72554177 183.03983479 -358.10776715 175.06454848 -351.3125 167.1875 C-350.35537109 166.07761719 -350.35537109 166.07761719 -349.37890625 164.9453125 C-347.70126202 163.01582791 -346.01092452 161.09871119 -344.3125 159.1875 C-343.67441406 158.46820313 -343.03632813 157.74890625 -342.37890625 157.0078125 C-316.78948588 128.36644291 -316.78948588 128.36644291 -303.28125 116.87890625 C-301.03468493 114.94882158 -298.86666096 112.94331861 -296.6875 110.9375 C-290.48654486 105.35096877 -283.93225475 100.26253139 -277.3125 95.1875 C-276.37229004 94.46191895 -276.37229004 94.46191895 -275.41308594 93.72167969 C-197.64747514 33.82594997 -100.50581733 0.01309922 0 0 Z M-88.3125 49.1875 C-89.20727051 49.36925781 -90.10204102 49.55101562 -91.02392578 49.73828125 C-162.38868595 64.49409634 -228.07860102 102.1796905 -281.3125 151.1875 C-281.93092773 151.75549316 -282.54935547 152.32348633 -283.18652344 152.90869141 C-285.29608271 154.85038788 -287.39884236 156.79921721 -289.5 158.75 C-290.16555908 159.36327148 -290.83111816 159.97654297 -291.5168457 160.60839844 C-295.50656422 164.33273097 -299.18219115 168.20639699 -302.73364258 172.3503418 C-304.77976517 174.73120966 -306.92174197 177.01672156 -309.0625 179.3125 C-314.30274519 185.06649472 -319.0987245 191.10197743 -323.83544922 197.2734375 C-325.35716914 199.24538529 -326.89778672 201.2014106 -328.44140625 203.15625 C-341.18050887 219.39455494 -351.98016145 236.72469743 -361.97070312 254.76660156 C-362.81226669 256.28496844 -363.65912118 257.8004277 -364.51367188 259.31152344 C-384.21356812 294.15336766 -397.74327952 333.94749403 -405.3125 373.1875 C-405.4784668 374.04504883 -405.64443359 374.90259766 -405.81542969 375.78613281 C-413.59066358 416.90880514 -414.19026313 458.59156584 -410.3125 500.1875 C-410.20035156 501.40928955 -410.20035156 501.40928955 -410.0859375 502.65576172 C-408.96201885 514.29300272 -406.64927596 525.74492895 -404.3125 537.1875 C-404.05992432 538.46657227 -404.05992432 538.46657227 -403.80224609 539.77148438 C-391.836177 599.84275743 -364.11342256 659.7641502 -325.3125 707.1875 C-324.23548828 708.53134766 -324.23548828 708.53134766 -323.13671875 709.90234375 C-315.20030511 719.72770841 -307.18546889 729.61310401 -298.09765625 738.40234375 C-296.26703285 740.23296715 -294.60625561 742.14649857 -292.9375 744.125 C-289.58252739 748.01767702 -285.89092229 751.38682851 -282.03515625 754.77734375 C-279.66721862 756.87349514 -277.35096958 759.01431296 -275.04492188 761.17797852 C-268.72016828 767.08504005 -262.08091092 772.46979709 -255.21044922 777.7265625 C-253.2440173 779.24021424 -251.29515211 780.77457961 -249.34765625 782.3125 C-233.10939118 795.05447868 -215.77674094 805.85436497 -197.73339844 815.84570312 C-196.21503156 816.68726669 -194.6995723 817.53412118 -193.18847656 818.38867188 C-158.34663234 838.08856812 -118.55250597 851.61827952 -79.3125 859.1875 C-78.45495117 859.3534668 -77.59740234 859.51943359 -76.71386719 859.69042969 C-21.41494527 870.14602578 34.70514889 868.36051176 89.6875 857.1875 C90.54118164 857.02169434 91.39486328 856.85588867 92.27441406 856.68505859 C150.32380439 845.36503578 209.04807528 816.5288475 254.6875 779.1875 C256.03134766 778.11048828 256.03134766 778.11048828 257.40234375 777.01171875 C267.22770841 769.07530511 277.11310401 761.06046889 285.90234375 751.97265625 C287.73296715 750.14203285 289.64649857 748.48125561 291.625 746.8125 C295.51767702 743.45752739 298.88682851 739.76592229 302.27734375 735.91015625 C304.37349514 733.54221862 306.51431296 731.22596958 308.67797852 728.91992188 C314.58127787 722.59919649 319.96400015 715.96448304 325.21777344 709.09863281 C326.75937763 707.0940352 328.31974935 705.10508802 329.8828125 703.1171875 C337.41203141 693.48733661 344.2492597 683.57544091 350.6875 673.1875 C351.06293945 672.58824707 351.43837891 671.98899414 351.82519531 671.37158203 C378.36408165 628.89746304 397.20393303 581.38673085 406.6875 532.1875 C406.86764648 531.28563965 407.04779297 530.3837793 407.23339844 529.45458984 C415.77836487 486.35118323 416.79586356 440.70225644 410.6875 397.1875 C410.54296387 396.13643066 410.39842773 395.08536133 410.24951172 394.00244141 C398.34860682 310.11621803 359.65208608 233.33068482 302.6875 171.1875 C302.18428223 170.63384766 301.68106445 170.08019531 301.16259766 169.50976562 C292.8916049 160.35177255 292.8916049 160.35177255 283.8203125 152.0078125 C281.55134712 150.07129626 279.38505386 148.03982576 277.21582031 145.99291992 C270.63006443 139.7971357 263.76924663 134.12284073 256.58251953 128.64111328 C254.58339389 127.10764329 252.60163859 125.55347326 250.62109375 123.99609375 C240.99057814 116.46465112 231.07702127 109.62671978 220.6875 103.1875 C220.08824707 102.81206055 219.48899414 102.43662109 218.87158203 102.04980469 C176.37864221 75.49915862 128.89353867 56.71738658 79.6875 47.1875 C78.8015918 47.00735352 77.91568359 46.82720703 77.00292969 46.64160156 C22.57068338 35.61961979 -34.16511046 38.03561422 -88.3125 49.1875 Z " fill="#E24E44" transform="translate(511.3125,58.8125)"/>
<path d="M0 0 C1.16159134 -0.01892807 1.16159134 -0.01892807 2.34664917 -0.03823853 C48.50728745 -0.64206989 92.36748795 8.668779 126.83984375 41.2734375 C127.71382812 42.07136719 128.5878125 42.86929688 129.48828125 43.69140625 C153.8834262 66.79339882 166.98758071 99.99529302 173.83984375 132.2734375 C174.08395996 133.37977539 174.32807617 134.48611328 174.57958984 135.62597656 C179.01606422 156.77014908 179.31858254 178.00665034 179.33750153 199.52253723 C179.33981837 201.7490509 179.34651049 203.97552295 179.35345459 206.20202637 C179.38594961 222.08044602 179.21604869 237.6875339 175.83984375 253.2734375 C175.50364014 254.84013184 175.50364014 254.84013184 175.16064453 256.43847656 C174.55552206 259.03212034 173.88200889 261.58733583 173.15234375 264.1484375 C172.89815674 265.05424561 172.64396973 265.96005371 172.38208008 266.89331055 C163.90051313 296.2322717 150.22909473 321.40420332 128.83984375 343.2734375 C128.11667969 344.05847656 127.39351562 344.84351563 126.6484375 345.65234375 C99.70834201 374.22827046 59.25166288 388.15788685 20.83984375 390.2734375 C15.29838586 390.40329447 9.76020193 390.40061724 4.2175293 390.38696289 C2.5900167 390.38668014 0.96250398 390.38684047 -0.66500854 390.3874054 C-5.04220972 390.38768994 -9.41938296 390.38184912 -13.79657769 390.37483144 C-18.38629019 390.36854035 -22.97600346 390.36798958 -27.5657196 390.36680603 C-36.23866317 390.36370958 -44.91159399 390.35551911 -53.58453196 390.34545654 C-63.46614307 390.3342428 -73.34775482 390.32877174 -83.22937071 390.32376111 C-103.53963965 390.31333493 -123.84989714 390.29576842 -144.16015625 390.2734375 C-142.65738061 386.46241136 -140.99167898 382.78152951 -139.22265625 379.0859375 C-132.88352116 365.32800928 -131.22065904 351.79184676 -130.60546875 336.7890625 C-130.56172119 335.77473145 -130.51797363 334.76040039 -130.47290039 333.71533203 C-130.36625763 331.23479219 -130.26206666 328.75417551 -130.16015625 326.2734375 C-129.42099346 326.27289273 -128.68183067 326.27234797 -127.92026901 326.27178669 C-109.84576225 326.25674953 -91.77150904 326.21402482 -73.69713974 326.14134693 C-64.95610578 326.10685063 -56.215227 326.08136174 -47.47412109 326.07788086 C-39.84587611 326.07481941 -32.21790858 326.05403956 -24.58977056 326.01291293 C-20.5592541 325.99177678 -16.52913012 325.97888063 -12.49855804 325.98728371 C17.83458929 326.03984197 43.45470007 322.63772891 66.3359375 300.90234375 C86.93080586 279.16529898 95.84422243 249.24169204 99.83984375 220.2734375 C99.99453125 219.25636719 99.99453125 219.25636719 100.15234375 218.21875 C101.24539906 210.13014068 101.08382303 201.92068985 101.08984375 193.7734375 C101.09051849 192.95352325 101.09119324 192.13360901 101.09188843 191.28884888 C101.04433552 154.77487908 95.02605047 112.0900223 68.29003906 84.6796875 C55.1241878 71.91280143 38.40970447 65.87845565 20.265625 65.76171875 C19.21577927 65.74376755 18.16593353 65.72581635 17.08427429 65.70732117 C13.77367008 65.65369958 10.46320596 65.61947805 7.15234375 65.5859375 C4.88995466 65.55272188 2.62758395 65.51822838 0.36523438 65.48242188 C-5.14310332 65.39800162 -10.65146029 65.32945097 -16.16015625 65.2734375 C-15.75023437 64.34402344 -15.3403125 63.41460937 -14.91796875 62.45703125 C-14.37346759 61.20843375 -13.82920977 59.95973011 -13.28515625 58.7109375 C-13.01574219 58.10185547 -12.74632812 57.49277344 -12.46875 56.86523438 C-8.92422799 48.6955434 -7.77208998 41.44693021 -7.78515625 32.5859375 C-7.78604248 31.51754639 -7.78692871 30.44915527 -7.7878418 29.34838867 C-7.9216623 20.44490993 -9.08401038 13.3024588 -13.796875 5.59765625 C-15.16015625 3.2734375 -15.16015625 3.2734375 -15.16015625 1.2734375 C-10.09438771 0.45527059 -5.13374114 0.07658023 0 0 Z " fill="#FEFDFD" transform="translate(597.16015625,316.7265625)"/>
<path d="M0 0 C1.68669823 -0.00935994 1.68669823 -0.00935994 3.40747118 -0.01890898 C7.15365966 -0.03479015 10.89919309 -0.02225314 14.64538574 -0.00964355 C17.33997988 -0.01506683 20.03452976 -0.02204661 22.72911072 -0.03088379 C29.27508112 -0.04862301 35.82086755 -0.04484966 42.36684501 -0.03323323 C47.68928587 -0.02418099 53.01167535 -0.02298262 58.3341217 -0.02732849 C59.47259502 -0.02824789 59.47259502 -0.02824789 60.6340678 -0.02918586 C62.17617017 -0.03046483 63.71827251 -0.03176168 65.26037484 -0.03307623 C79.70346613 -0.04446855 94.14645569 -0.03138952 108.58953029 -0.00987476 C120.96871402 0.00799502 133.34774769 0.00489053 145.72692871 -0.0135498 C160.1201237 -0.03498038 174.51322964 -0.04337004 188.90643835 -0.03110075 C190.44270673 -0.02982662 191.97897512 -0.02856914 193.51524353 -0.02732849 C194.27101686 -0.02671139 195.02679018 -0.02609429 195.80546573 -0.02545848 C201.11838428 -0.02201214 206.43124611 -0.02781846 211.74415588 -0.0372467 C218.22334031 -0.04849242 224.70233102 -0.04537286 231.1814934 -0.02412373 C234.4841128 -0.01364759 237.78634501 -0.01160378 241.08897209 -0.02272034 C244.67608953 -0.0336798 248.26230498 -0.01990557 251.84936523 0 C252.8834264 -0.00892289 253.91748757 -0.01784577 254.98288393 -0.02703905 C265.13497782 0.08194403 273.12330649 3.18226725 280.44030762 10.26574707 C286.96374073 17.63671283 288.33596564 25.03058523 287.84655762 34.65637207 C286.9735621 42.62649782 284.14999916 48.91273886 278.42468262 54.50793457 C270.77150428 60.19632178 263.97711931 61.80908113 254.56384277 61.73498535 C253.09949295 61.73542343 253.09949295 61.73542343 251.6055603 61.73587036 C248.39153025 61.73448144 245.17773448 61.71894069 241.96374512 61.70324707 C239.73029711 61.69951539 237.49684745 61.69666915 235.26339722 61.69467163 C229.39438328 61.68704741 223.52546885 61.66740924 217.65649414 61.64526367 C211.66387274 61.6247792 205.67123521 61.61566435 199.67858887 61.60559082 C187.92724315 61.58416228 176.17597117 61.55004088 164.42468262 61.50793457 C164.42696094 62.44115971 164.42696094 62.44115971 164.42928529 63.39323789 C164.5188434 100.28619112 164.58745198 137.17912823 164.62894394 174.07216795 C164.63394662 178.50428891 164.63912392 182.93640965 164.64440918 187.36853027 C164.64545842 188.25086683 164.64650766 189.13320339 164.6475887 190.04227742 C164.66498275 204.31943743 164.69651493 218.59653285 164.7332938 232.87365458 C164.77073105 247.52883449 164.79292435 262.18398063 164.8010366 276.8392064 C164.8065186 285.87858516 164.82381829 294.91778137 164.85634848 303.95710393 C164.87753076 310.159982 164.88387428 316.36276602 164.87868813 322.56567762 C164.8761321 326.14176103 164.87998492 329.71752596 164.90150452 333.2935524 C164.92471083 337.17842788 164.91660062 341.06289316 164.90570068 344.9478302 C164.91735205 346.06750964 164.92900342 347.18718908 164.94100785 348.3407982 C164.84769231 360.67852184 160.77606042 369.74719062 152.42468262 378.63684082 C147.00670954 383.89033971 141.65556414 386.49239752 134.42468262 388.50793457 C133.75952637 388.69742676 133.09437012 388.88691895 132.40905762 389.08215332 C123.1132996 391.07671557 114.69094588 388.92275423 106.42468262 384.50793457 C96.58313011 377.34435554 90.63340077 369.21527795 87.42468262 357.50793457 C86.90561659 353.30949178 86.89968505 349.17419697 86.94366455 344.9478302 C86.94024685 343.72970003 86.93682915 342.51156986 86.93330789 341.25652665 C86.9278931 337.90615772 86.94025918 334.55674076 86.96042013 331.20648777 C86.97779722 327.58224499 86.97184123 323.95802826 86.96881104 320.33375549 C86.96672011 314.06473744 86.97920196 307.79588674 87.00176239 301.52691078 C87.03435899 292.46320678 87.04469721 283.39958316 87.04971436 274.3358269 C87.05845503 259.62825775 87.0850372 244.92077767 87.1229248 230.21325684 C87.15967674 215.93168583 87.1879729 201.65013906 87.20495605 187.36853027 C87.2065324 186.04663917 87.2065324 186.04663917 87.20814058 184.6980432 C87.21336097 180.27673524 87.21841575 175.85542711 87.2233882 171.43411887 C87.26481198 134.79199457 87.33522686 98.14997152 87.42468262 61.50793457 C86.18155304 61.51903763 84.93842346 61.53014069 83.65762329 61.5415802 C71.91733577 61.6431306 60.17713787 61.71798381 48.43651009 61.76699543 C42.40113075 61.79304035 36.36610722 61.82834584 30.33093262 61.88513184 C24.50186563 61.93963257 18.67313995 61.96939348 12.84383774 61.98232079 C10.624761 61.99152819 8.40570203 62.00950806 6.18677139 62.03658485 C3.06791708 62.07311443 -0.0495438 62.07786983 -3.1685791 62.07556152 C-4.53128685 62.10252609 -4.53128685 62.10252609 -5.92152405 62.1300354 C-13.99357176 62.06578886 -20.36592938 59.29870674 -26.45031738 54.00793457 C-27.15156738 53.18293457 -27.85281738 52.35793457 -28.57531738 51.50793457 C-29.27656738 50.74480957 -29.97781738 49.98168457 -30.70031738 49.19543457 C-36.43920491 40.96969578 -36.56913794 32.17597535 -35.57531738 22.50793457 C-33.464666 14.73829034 -28.27631733 8.83664822 -21.57531738 4.50793457 C-14.32433663 0.86000411 -8.04668679 -0.06943465 0 0 Z " fill="#FEFEFE" transform="translate(276.5753173828125,317.4920654296875)"/>
<path d="M0 0 C0 4.14105261 -2.2402138 5.93566778 -4.8125 8.9375 C-10.99657112 16.39735977 -16.45467574 24.29295284 -21.875 32.3125 C-22.48633286 33.21353958 -22.48633286 33.21353958 -23.11001587 34.13278198 C-27.9622882 41.29361473 -32.64520078 48.52259283 -37 56 C-37.37157227 56.62737061 -37.74314453 57.25474121 -38.12597656 57.90112305 C-44.66472642 68.98850185 -50.17447929 80.51681713 -55.6394043 92.16186523 C-57.04690698 95.09784563 -58.51897209 97.99502727 -60 100.89453125 C-77.21185533 135.18556661 -88.88223205 175.28728662 -93.29956055 213.35546875 C-93.82405614 217.82998542 -94.54338812 222.20046308 -95.53515625 226.59375 C-102.07278514 260.43559367 -100.05272755 300.91324328 -96 335 C-95.87689453 336.05977051 -95.75378906 337.11954102 -95.62695312 338.21142578 C-94.96262436 349.41104185 -94.96262436 349.41104185 -92 360 C-91.71874435 363.7322178 -91.55253992 367.46445958 -91.37890625 371.203125 C-91.01954878 374.80410912 -90.21668801 377.61463527 -89 381 C-88.65229925 382.76425937 -88.33889524 384.53567344 -88.0625 386.3125 C-87.34110451 390.46329865 -86.33284673 394.25157806 -84.921875 398.2109375 C-83.36222481 402.92954018 -82.10361037 407.73452619 -80.80151367 412.52954102 C-79.90028211 415.83073336 -78.97638545 419.06764168 -77.84765625 422.30078125 C-77 425 -77 425 -77 429 C-76.34 429 -75.68 429 -75 429 C-72.1647887 434.5522888 -71.62047705 438.80112515 -72 445 C-71.34 445 -70.68 445 -70 445 C-69.1605118 447.10171867 -68.32860344 449.20646625 -67.5 451.3125 C-67.0359375 452.48425781 -66.571875 453.65601563 -66.09375 454.86328125 C-65 458 -65 458 -65 461 C-64.34 461 -63.68 461 -63 461 C-60.49739625 465.63445139 -58.60979142 470.10872113 -57 475.125 C-52.97865812 486.74781259 -46.73099416 498.2187395 -39.75390625 508.34375 C-38 511 -38 511 -37.08203125 513.3125 C-35.40723145 517.47229155 -33.02178617 521.18082263 -30.6875 525 C-30.21376953 525.7940625 -29.74003906 526.588125 -29.25195312 527.40625 C-26.53927339 531.85934943 -23.84706408 535.48077269 -20 539 C-17.86981326 541.45790778 -16.85117201 543.37206997 -15.625 546.4375 C-13.8627863 550.30081465 -12.00281914 552.03546043 -9 555 C-7.01979028 557.32512473 -5.13668462 559.72370927 -3.25 562.125 C-2.18262616 563.46901571 -1.11491553 564.81276402 -0.046875 566.15625 C0.9687877 567.43747011 1.9844154 568.71871797 3 570 C8.75602921 577.24268576 14.78393504 584.12487946 21.09765625 590.87890625 C23.59016163 593.54660888 26.02041052 596.26358861 28.4375 599 C35.87263932 607.28680073 43.74088555 615.26578006 52.24609375 622.45703125 C54.08347068 624.07343189 55.75031891 625.79076769 57.4375 627.5625 C60.5399099 630.72808114 63.88642679 632.97101461 67.6171875 635.3359375 C70.28278299 637.19748451 72.56606684 639.27724604 74.9375 641.5 C78.91695561 645.18812474 82.92912678 648.00065987 87.67578125 650.61328125 C90 652 90 652 92.28515625 653.8359375 C95.74231451 656.59171545 99.4018554 658.9345822 103.125 661.3125 C103.87765137 661.79525391 104.63030273 662.27800781 105.40576172 662.77539062 C106.9104816 663.74011153 108.41583902 664.70383886 109.921875 665.66650391 C111.72520117 666.82366645 113.51967666 667.9945997 115.3125 669.16796875 C120.09098161 672.28061858 124.65891488 674.98225673 130 677 C130 677.66 130 678.32 130 679 C130.763125 679.20625 131.52625 679.4125 132.3125 679.625 C138.62714161 681.97961213 144.35147835 685.51000544 150.21484375 688.80859375 C156.21122268 692.1240708 162.03527238 694.96871607 168.5625 697.078125 C171.26864271 698.10160205 173.55429107 699.46316939 176 701 C176.66 701.33 177.32 701.66 178 702 C178 702.66 178 703.32 178 704 C179.3303125 704.12375 179.3303125 704.12375 180.6875 704.25 C189.75507455 705.57122344 198.50057257 709.12436055 207.125 712.125 C207.85960449 712.37854248 208.59420898 712.63208496 209.35107422 712.89331055 C212.53524705 714.01768214 215.17525348 715.11683565 218 717 C219.85207562 717.47086668 221.70524835 717.94128485 223.57421875 718.33984375 C226 719 226 719 229.30078125 720.3984375 C235.76463117 722.86913482 242.69540605 723.62398256 249.5 724.6875 C250.90897642 724.91395422 252.317832 725.14116162 253.7265625 725.36914062 C257.14969174 725.92145312 260.57434505 726.46354753 264 727 C264 727.66 264 728.32 264 729 C264.97259766 729.03867188 264.97259766 729.03867188 265.96484375 729.078125 C275.04970089 729.60339926 283.92186947 731.02726148 292.88842773 732.54003906 C293.91911377 732.71245117 294.9497998 732.88486328 296.01171875 733.0625 C296.92397217 733.21847656 297.83622559 733.37445312 298.77612305 733.53515625 C309.27053773 735.0483229 319.6480056 735.14714557 330.23046875 735.1328125 C331.99302687 735.13348735 333.7555849 735.13445889 335.5181427 735.13571167 C339.19529108 735.13717894 342.87241503 735.13506467 346.54956055 735.13037109 C351.25008929 735.12466174 355.95056108 735.1279666 360.65108776 735.13394356 C364.28429083 735.13756467 367.91748049 735.13640367 371.55068398 735.13381577 C373.28374552 735.13315144 375.0168083 735.13395753 376.74986839 735.13629532 C379.17336614 735.13884876 381.59677268 735.13494404 384.02026367 735.12939453 C384.72744537 735.13141876 385.43462708 735.13344299 386.16323853 735.13552856 C390.52918193 735.117107 394.6895456 734.66431792 399 734 C401.03396212 733.92778833 403.06807359 733.85692038 405.1027832 733.81030273 C415.1754421 733.54298279 424.71410984 731.8860972 434.54638672 729.72753906 C444.00407652 727.66464541 444.00407652 727.66464541 449 728 C449 727.34 449 726.68 449 726 C453.80483216 724.85783664 458.61034015 723.71857832 463.41650391 722.58203125 C465.05211081 722.19481309 466.68752866 721.8067955 468.32275391 721.41796875 C470.67040802 720.85988481 473.0187224 720.30465993 475.3671875 719.75 C476.10057343 719.57500977 476.83395935 719.40001953 477.58956909 719.21972656 C482.77225659 718 482.77225659 718 485 718 C485 717.34 485 716.68 485 716 C486.01312256 715.65743164 487.02624512 715.31486328 488.07006836 714.96191406 C491.86791577 713.6764809 495.66383497 712.38543206 499.45922852 711.09277344 C501.09478425 710.53657815 502.73084288 709.98185919 504.36743164 709.42871094 C516.87464936 705.20098333 516.87464936 705.20098333 529 700 C530.37550887 699.38978611 531.75313732 698.78432833 533.1328125 698.18359375 C533.79410156 697.89419922 534.45539062 697.60480469 535.13671875 697.30664062 C535.79285156 697.01982422 536.44898438 696.73300781 537.125 696.4375 C537.78886719 696.14681641 538.45273437 695.85613281 539.13671875 695.55664062 C539.79542969 695.26853516 540.45414063 694.98042969 541.1328125 694.68359375 C541.78572266 694.39750244 542.43863281 694.11141113 543.11132812 693.81665039 C544.82878018 693.07403442 546.55836103 692.35962837 548.2890625 691.6484375 C553.41789849 689.45357395 558.3161398 686.78308356 563.25 684.1875 C564.22324219 683.67896484 565.19648437 683.17042969 566.19921875 682.64648438 C577.02198959 676.9763873 587.57870406 671.43769068 597.3125 664 C602.28221544 660.24496687 607.33381471 656.63274248 612.4375 653.0625 C628.15324443 642.03100516 642.82680456 629.94455931 657 617 C657.95648437 616.13632812 658.91296875 615.27265625 659.8984375 614.3828125 C669.44427915 605.73941387 678.69111782 596.85917676 687 587 C687.83144531 586.02289062 688.66289063 585.04578125 689.51953125 584.0390625 C691.89459847 581.24593283 694.25650388 578.44192775 696.61669922 575.63623047 C697.89321877 574.12630565 699.18238085 572.62709333 700.47265625 571.12890625 C710.30411579 559.60291873 718.9665462 547.21029014 727.23046875 534.52734375 C728.90729556 532.13240567 730.68835 530.06507506 732.6875 527.9375 C736.71657194 523.5665114 738.81717652 518.47214735 741 513 C741.66 513 742.32 513 743 513 C743.33 511.02 743.66 509.04 744 507 C744.66 507 745.32 507 746 507 C746.24105469 506.17886719 746.48210938 505.35773438 746.73046875 504.51171875 C748.2284746 500.3680041 750.20108888 496.66934432 752.3125 492.8125 C757.18733091 483.75257179 761.46026082 474.58334831 765.203125 464.99609375 C766 463 766 463 767 461 C767.66 461 768.32 461 769 461 C769.12246094 460.29488281 769.24492188 459.58976562 769.37109375 458.86328125 C770.03405201 455.84496817 770.98175575 453.08110558 772.0625 450.1875 C772.42472656 449.21167969 772.78695312 448.23585938 773.16015625 447.23046875 C773.43730469 446.49441406 773.71445312 445.75835938 774 445 C774.66 445 775.32 445 776 445 C775.938125 443.824375 775.938125 443.824375 775.875 442.625 C776 440 776 440 778 438 C778.36593119 436.05417543 778.64393564 434.09140488 778.875 432.125 C779.80214648 425.41814198 781.6493769 419.33298942 784 413 C784.66 413 785.32 413 786 413 C786.103125 411.741875 786.20625 410.48375 786.3125 409.1875 C787.02577058 402.73749602 788.62195046 396.43476258 791.0390625 390.41015625 C792.5114009 386.71734001 793.22110974 382.8846433 794 379 C794.2261499 377.89027832 794.4522998 376.78055664 794.68530273 375.63720703 C796.54836482 366.13407078 797.87785646 356.65893298 798.88037109 347.02856445 C799.12386454 344.69836622 799.37957672 342.36974283 799.63671875 340.04101562 C801.5636954 322.22133595 802.17983405 304.4783907 802.125 286.5625 C802.1234491 285.65534241 802.12189819 284.74818481 802.12030029 283.8135376 C802.8807268 249.17006395 802.8807268 249.17006395 797.484375 215.18359375 C796.81471576 212.1647267 796.56740961 209.1381991 796.25 206.0625 C791.74950846 166.03634308 776.30073169 125.57142413 758.75 89.5625 C758.41633423 88.8772525 758.08266846 88.192005 757.7388916 87.48599243 C751.9153326 75.5684821 745.96638596 63.73401967 738.67578125 52.6328125 C737.47072028 50.73954655 736.33209248 48.80339407 735.23828125 46.84375 C732.40198418 41.83533056 729.12277796 37.12244167 725.875 32.375 C725.21064941 31.40240234 724.54629883 30.42980469 723.86181641 29.42773438 C717.32662846 19.92143147 710.41044052 10.84052553 703 2 C703.33 1.34 703.66 0.68 704 0 C712.96384601 9.23106093 720.43668242 19.62264685 728 30 C728.90854736 31.24330078 728.90854736 31.24330078 729.83544922 32.51171875 C739.0622467 45.20771135 747.3021138 58.32668905 755 72 C755.85875732 73.52004639 755.85875732 73.52004639 756.73486328 75.07080078 C786.01311506 127.23506112 803.63071996 183.92861136 812 243 C812.18079102 244.2698877 812.36158203 245.53977539 812.54785156 246.84814453 C817.55431987 284.10801352 817.29733794 323.79115838 812 361 C811.90054077 361.70199524 811.80108154 362.40399048 811.6986084 363.1272583 C800.60156094 440.79162341 772.34805676 515.11214943 725 578 C724.32976807 578.8976709 724.32976807 578.8976709 723.64599609 579.81347656 C717.41304177 588.14766521 710.79526715 596.12295152 704 604 C703.36191406 604.73992188 702.72382812 605.47984375 702.06640625 606.2421875 C700.38877489 608.17165729 698.69567606 610.08637305 697 612 C696.37569092 612.70914551 695.75138184 613.41829102 695.1081543 614.14892578 C689.58084498 620.36819475 683.82753889 626.32794055 677.93383789 632.1965332 C676.43193075 633.69304925 674.93548938 635.194883 673.43945312 636.69726562 C668.13219688 642.0084586 662.72884961 647.14133496 657 652 C656.03578125 652.845625 655.0715625 653.69125 654.078125 654.5625 C644.42842031 662.87937255 634.26607636 670.46472042 624 678 C623.28859863 678.5273877 622.57719727 679.05477539 621.84423828 679.59814453 C560.24443156 725.14907312 486.36333043 751.32246505 411 762 C409.7301123 762.18079102 408.46022461 762.36158203 407.15185547 762.54785156 C369.89198648 767.55431987 330.20884162 767.29733794 293 762 C292.29800476 761.90054077 291.59600952 761.80108154 290.8727417 761.6986084 C228.83439919 752.83428008 168.86381377 733.28661531 115 701 C114.10249023 700.46665039 113.20498047 699.93330078 112.28027344 699.38378906 C99.70834955 691.88387746 87.69903141 683.79645792 76 675 C75.07985107 674.30946533 75.07985107 674.30946533 74.14111328 673.60498047 C63.6413906 665.69454933 53.4595496 657.47740663 43.80078125 648.5546875 C42.32057022 647.20453686 40.83519805 645.85913283 39.31225586 644.55737305 C33.43852924 639.5362964 27.97629591 634.1285547 22.52709961 628.6574707 C20.94040054 627.06541034 19.34842258 625.4787701 17.75585938 623.89257812 C12.29378543 618.43433909 6.99035967 612.89769779 2 607 C1.154375 606.03578125 0.30875 605.0715625 -0.5625 604.078125 C-8.87862048 594.4292929 -16.49184076 584.28538743 -24 574 C-24.60279785 573.1754834 -25.2055957 572.3509668 -25.82666016 571.50146484 C-35.05627963 558.80096359 -43.29951021 545.67793555 -51 532 C-51.57250488 530.98663574 -52.14500977 529.97327148 -52.73486328 528.92919922 C-82.01311506 476.76493888 -99.63071996 420.07138864 -108 361 C-108.18079102 359.7301123 -108.36158203 358.46022461 -108.54785156 357.15185547 C-113.55431987 319.89198648 -113.29733794 280.20884162 -108 243 C-107.90054077 242.29800476 -107.80108154 241.59600952 -107.6986084 240.8727417 C-96.60156094 163.20837659 -68.34805676 88.88785057 -21 26 C-20.55317871 25.40155273 -20.10635742 24.80310547 -19.64599609 24.18652344 C-13.41258865 15.85172892 -6.78835384 7.88533117 0 0 Z " fill="#020201" transform="translate(160,226)"/>
<path d="M0 0 C1.16212006 0.00090637 1.16212006 0.00090637 2.34771729 0.00183105 C66.18641047 0.1354564 129.5231754 13.88347397 187.6875 40.1875 C188.67298828 40.63206543 189.65847656 41.07663086 190.67382812 41.53466797 C220.5838241 55.15137771 248.60018228 72.22913042 274.6875 92.1875 C275.32623047 92.6731543 275.96496094 93.15880859 276.62304688 93.65917969 C296.26228845 108.63488738 314.50822599 125.45995129 331.6875 143.1875 C332.43257812 143.94933594 333.17765625 144.71117187 333.9453125 145.49609375 C337.45407253 149.25345014 339.55285942 151.80187677 339.6875 157.1875 C335.04323105 153.49319515 330.99002609 149.44753352 327 145.0625 C319.29022286 136.59707709 311.38843888 128.30484557 302.65625 120.87890625 C300.40968493 118.94882158 298.24166096 116.94331861 296.0625 114.9375 C290.4049035 109.83439994 284.44169829 105.17341373 278.41064453 100.52539062 C276.84350887 99.30862901 275.29376487 98.06955044 273.74609375 96.828125 C258.40981116 84.65712044 241.73165953 73.81777728 224.6875 64.1875 C223.88699219 63.73455566 223.08648438 63.28161133 222.26171875 62.81494141 C171.82816213 34.45073558 117.02056953 15.89517548 59.6875 8.1875 C58.59195801 8.02523926 57.49641602 7.86297852 56.36767578 7.69580078 C18.84711162 2.21450624 -21.80617727 2.71613002 -59.3125 8.1875 C-60.49312012 8.34847168 -61.67374023 8.50944336 -62.89013672 8.67529297 C-104.79929191 14.48221837 -145.83310898 26.65833603 -184.3125 44.1875 C-185.35841309 44.66300293 -186.40432617 45.13850586 -187.48193359 45.62841797 C-211.78660821 56.77690703 -234.31121412 70.01707367 -256.3125 85.1875 C-257.0226123 85.67347656 -257.73272461 86.15945312 -258.46435547 86.66015625 C-268.16828938 93.31996237 -277.28187282 100.64983941 -286.3125 108.1875 C-286.910625 108.68507813 -287.50875 109.18265625 -288.125 109.6953125 C-303.8672309 122.83726419 -319.47517892 136.84638423 -332.80859375 152.4609375 C-334.86748359 154.82464999 -337.06282538 157.00599734 -339.3125 159.1875 C-339.9725 158.5275 -340.6325 157.8675 -341.3125 157.1875 C-338.05388919 151.88394466 -334.10728873 147.5509395 -329.8125 143.0625 C-329.10416016 142.31693848 -328.39582031 141.57137695 -327.66601562 140.80322266 C-311.60988623 123.96166042 -311.60988623 123.96166042 -303.28125 116.87890625 C-301.03468493 114.94882158 -298.86666096 112.94331861 -296.6875 110.9375 C-290.48654486 105.35096877 -283.93225475 100.26253139 -277.3125 95.1875 C-276.68569336 94.7037793 -276.05888672 94.22005859 -275.41308594 93.72167969 C-197.64747514 33.82594997 -100.50581733 0.01309922 0 0 Z " fill="#FEFC91" transform="translate(511.3125,58.8125)"/>
<path d="M0 0 C9.18121746 1.36395027 16.91123933 15.92965205 22.11816406 22.89526367 C31.40485065 35.49082595 40.0537722 48.51961497 48 62 C48.56255493 62.94842773 48.56255493 62.94842773 49.13647461 63.91601562 C55.66424982 75.00319076 61.1767477 86.52165081 66.6394043 98.16186523 C68.04690698 101.09784563 69.51897209 103.99502727 71 106.89453125 C88.21185533 141.18556661 99.88223205 181.28728662 104.29956055 219.35546875 C104.82405614 223.82998542 105.54338812 228.20046308 106.53515625 232.59375 C113.1280356 266.72159604 110.36213567 306.60121252 107 341 C106.8875293 342.19850586 106.77505859 343.39701172 106.65917969 344.63183594 C105.37034666 358.21251452 103.93577113 371.66670612 101 385 C100.7525 386.1653125 100.505 387.330625 100.25 388.53125 C99.03877339 394.03223753 97.63416312 399.34603738 95.76171875 404.65625 C94.2330249 409.35992339 93.14717365 414.19163385 92 419 C91.34 419 90.68 419 90 419 C89.814375 420.5778125 89.814375 420.5778125 89.625 422.1875 C89 426 89 426 88.0234375 428.3203125 C86.43807045 432.47131173 86.11914664 436.74815639 85.5625 441.13671875 C85 444 85 444 83 446 C82.35232207 448.57061311 82.35232207 448.57061311 82 451 C81.34 451 80.68 451 80 451 C79.9175 451.78375 79.835 452.5675 79.75 453.375 C78.75634931 458.177645 76.91286482 462.49809489 75 467 C74.34 467 73.68 467 73 467 C72.71125 468.134375 72.4225 469.26875 72.125 470.4375 C71.75375 471.613125 71.3825 472.78875 71 474 C70.34 474.33 69.68 474.66 69 475 C69.70192085 470.06678166 71.63530775 465.74025318 73.5625 461.1875 C73.89185547 460.39923828 74.22121094 459.61097656 74.56054688 458.79882812 C75.36958906 456.86416204 76.18423852 454.93184247 77 453 C77.66 453 78.32 453 79 453 C79.09023438 451.90300781 79.18046875 450.80601562 79.2734375 449.67578125 C79.95625157 444.24776625 81.80080077 439.32151204 83.625 434.1875 C94.7362629 401.78757815 101.48720791 368.03642915 105 334 C105.1045752 332.99243652 105.20915039 331.98487305 105.31689453 330.94677734 C106.42808801 318.17103409 106.24392448 305.31305758 106.25 292.5 C106.25067474 291.22377777 106.25134949 289.94755554 106.25204468 288.63265991 C106.23629031 269.88481484 105.80280368 251.56413089 103 233 C102.82839355 231.80165527 102.65678711 230.60331055 102.47998047 229.36865234 C91.96746288 156.96474436 64.74652349 86.87740011 21 28 C20.52320801 27.35337402 20.04641602 26.70674805 19.55517578 26.04052734 C13.74750704 18.16948513 7.84222833 10.4310908 1.546875 2.94140625 C0 1 0 1 0 0 Z " fill="#858559" transform="translate(854,220)"/>
<path d="M0 0 C0.66 0.33 1.32 0.66 2 1 C1.57291748 1.8029248 1.14583496 2.60584961 0.70581055 3.43310547 C-32.17618923 65.50775435 -54.91495188 134.76082169 -55.203125 205.6484375 C-55.21013931 206.81168045 -55.21715363 207.9749234 -55.22438049 209.17341614 C-55.24178437 212.9073173 -55.24823301 216.64105976 -55.25 220.375 C-55.25067474 221.65210846 -55.25134949 222.92921692 -55.25204468 224.24502563 C-55.23599888 243.35527328 -54.77303878 262.0648796 -52 281 C-51.82839355 282.21929199 -51.65678711 283.43858398 -51.47998047 284.69482422 C-47.57277548 311.87765787 -40.86154395 338.20940767 -32.73681641 364.4140625 C-32.0202474 366.92893955 -31.47499046 369.42959988 -31 372 C-31.66 371.67 -32.32 371.34 -33 371 C-33.625 367.9375 -33.625 367.9375 -34 365 C-34.66 365 -35.32 365 -36 365 C-39.1726296 355.33360515 -41.94312656 345.64067753 -44.29956055 335.74121094 C-45.27978302 331.66707213 -46.37878536 327.8744282 -48 324 C-48.39011428 322.48798846 -48.74603785 320.96662385 -49.0625 319.4375 C-49.71669666 316.28676222 -49.71669666 316.28676222 -50.53125 313.17578125 C-51.46557249 308.83896771 -51.40907978 304.34259177 -51.62109375 299.921875 C-51.94689626 296.54965104 -52.60264639 293.54646917 -53.47631836 290.28613281 C-54.58937287 285.42709205 -55.01493329 280.44838066 -55.5625 275.5 C-55.68818359 274.43007813 -55.81386719 273.36015625 -55.94335938 272.2578125 C-57.76109374 256.23129592 -58.16996363 240.36033394 -58.125 224.25 C-58.1234491 223.26432037 -58.12189819 222.27864075 -58.12030029 221.26309204 C-58.02066471 167.16370521 -58.02066471 167.16370521 -53.484375 151.18359375 C-52.81471576 148.1647267 -52.56740961 145.1381991 -52.25 142.0625 C-47.73472038 101.90482182 -32.18578318 61.39191923 -14.625 25.25 C-14.28279419 24.5434024 -13.94058838 23.83680481 -13.5880127 23.10879517 C-4.58524856 4.58524856 -4.58524856 4.58524856 0 0 Z " fill="#818155" transform="translate(119,290)"/>
<path d="M0 0 C9.18121746 1.36395027 16.91123933 15.92965205 22.11816406 22.89526367 C31.40485065 35.49082595 40.0537722 48.51961497 48 62 C48.56255493 62.94842773 48.56255493 62.94842773 49.13647461 63.91601562 C55.66403504 75.00282596 61.17750002 86.52064096 66.63867188 98.16113281 C68.04894957 101.10207776 69.52617432 104.00268588 71.01171875 106.90625 C74.09732164 113.05065466 76.67600306 119.32865598 79.125 125.75 C79.55659424 126.87873535 79.98818848 128.0074707 80.43286133 129.17041016 C89.01888321 152.04575696 89.01888321 152.04575696 87 159 C86.73485596 158.21802246 86.46971191 157.43604492 86.1965332 156.63037109 C68.06478772 103.50624998 42.95415286 54.89293235 7.8046875 10.89404297 C5.00708361 7.37124899 2.44678634 3.7756936 0 0 Z " fill="#BAB97A" transform="translate(854,220)"/>
<path d="M0 0 C-7.28185021 3.44043102 -14.76414946 6.13350379 -22.375 8.75 C-23.54933594 9.16121094 -24.72367188 9.57242188 -25.93359375 9.99609375 C-27.61775391 10.57810547 -27.61775391 10.57810547 -29.3359375 11.171875 C-30.35220215 11.5234668 -31.3684668 11.87505859 -32.41552734 12.23730469 C-35 13 -35 13 -38 13 C-38 13.66 -38 14.32 -38 15 C-45.82000312 17.36360223 -53.65558653 19.4617097 -61.625 21.25 C-62.39440918 21.42499023 -63.16381836 21.59998047 -63.95654297 21.78027344 C-67.41262072 22.54013658 -70.44346093 23 -74 23 C-74 23.66 -74 24.32 -74 25 C-75.24873901 25.21934204 -75.24873901 25.21934204 -76.52270508 25.44311523 C-79.61482555 25.98736125 -82.70657781 26.53364119 -85.7980957 27.08129883 C-87.13551692 27.31779108 -88.47308134 27.553475 -89.81079102 27.78833008 C-91.73491378 28.12628406 -93.65848062 28.46739839 -95.58203125 28.80859375 C-96.73936768 29.01282959 -97.8967041 29.21706543 -99.08911133 29.42749023 C-102.04806976 29.9453538 -102.04806976 29.9453538 -105 31 C-106.39774978 31.13417291 -107.80013895 31.2234836 -109.203125 31.28125 C-110.42708984 31.33732422 -110.42708984 31.33732422 -111.67578125 31.39453125 C-112.52527344 31.42933594 -113.37476563 31.46414063 -114.25 31.5 C-115.92200907 31.56977472 -117.5938922 31.64264286 -119.265625 31.71875 C-120.00586914 31.74904297 -120.74611328 31.77933594 -121.50878906 31.81054688 C-124.12222783 31.97548948 -124.12222783 31.97548948 -127.17085266 32.50177002 C-131.05505712 33.00716376 -134.84965547 33.15475719 -138.75756836 33.16113281 C-139.87170357 33.16858017 -139.87170357 33.16858017 -141.00834656 33.17617798 C-143.45218872 33.19070702 -145.89596557 33.19759279 -148.33984375 33.203125 C-149.60918857 33.20736607 -149.60918857 33.20736607 -150.90417671 33.21169281 C-155.39925569 33.22666216 -159.89430288 33.2359008 -164.3894043 33.24023438 C-168.0578015 33.24458779 -171.72595937 33.25835949 -175.39428711 33.28125 C-195.47738004 33.40408287 -215.13344869 33.35337355 -235 30 C-236.35631083 29.79034183 -237.7129753 29.58295172 -239.07006836 29.37841797 C-242.2204621 28.88991376 -245.36008219 28.36370142 -248.5 27.8125 C-249.53640625 27.63525391 -250.5728125 27.45800781 -251.640625 27.27539062 C-254.09461813 26.85503069 -256.54769445 26.43007341 -259 26 C-259 25.34 -259 24.68 -259 24 C-254.00305121 24.51021477 -249.0486268 25.12508382 -244.0859375 25.90234375 C-218.48641117 29.892779 -193.17662597 31.17184849 -167.3125 31.1875 C-166.35007385 31.18858765 -165.38764771 31.18967529 -164.39605713 31.1907959 C-146.83171124 31.18854411 -129.33444204 31.07833862 -112 28 C-109.77666865 27.65993769 -107.55268104 27.32414396 -105.328125 26.9921875 C-70.47178648 21.57495822 -36.89529844 12.41150789 -4.01708984 -0.42480469 C-2 -1 -2 -1 0 0 Z " fill="#5C573D" transform="translate(683,929)"/>
<path d="M0 0 C0.99 0.495 0.99 0.495 2 1 C1.39767767 4.64133414 1.06249414 4.95149826 -2.10546875 7.41015625 C-3.45991657 8.30378471 -4.82108018 9.18728712 -6.1875 10.0625 C-22.57547806 20.94260712 -37.48939699 33.74923229 -52 47 C-53.41732422 48.27810547 -53.41732422 48.27810547 -54.86328125 49.58203125 C-64.20675955 58.03296631 -73.35350883 66.70776527 -81.53125 76.30859375 C-83.57559523 78.66285302 -85.76233199 80.83014011 -88 83 C-88.66 82.34 -89.32 81.68 -90 81 C-86.74138919 75.69644466 -82.79478873 71.3634395 -78.5 66.875 C-77.79166016 66.12943848 -77.08332031 65.38387695 -76.35351562 64.61572266 C-60.29738623 47.77416042 -60.29738623 47.77416042 -51.96875 40.69140625 C-49.72218493 38.76132158 -47.55416096 36.75581861 -45.375 34.75 C-31.28858083 22.05933883 -15.64395133 10.68000524 0 0 Z " fill="#F7F39F" transform="translate(260,135)"/>
<path d="M0 0 C0.33 0 0.66 0 1 0 C1.10284129 5.16491837 1.02104482 10.24049593 0.50878906 15.38354492 C-0.13121984 22.7905898 -0.18337083 30.18484667 -0.203125 37.61328125 C-0.20595238 38.34689566 -0.20877975 39.08051006 -0.21169281 39.83635521 C-0.22659566 43.73652868 -0.23587519 47.63666618 -0.24023438 51.53686523 C-0.24457258 54.68672567 -0.25829387 57.83630499 -0.28125 60.98608398 C-0.64096929 111.41083936 7.31079229 159.18816802 22.26318359 207.4140625 C22.9797526 209.92893955 23.52500954 212.42959988 24 215 C23.34 214.67 22.68 214.34 22 214 C21.375 210.9375 21.375 210.9375 21 208 C20.34 208 19.68 208 19 208 C15.8273704 198.33360515 13.05687344 188.64067753 10.70043945 178.74121094 C9.72021698 174.66707213 8.62121464 170.8744282 7 167 C6.60988572 165.48798846 6.25396215 163.96662385 5.9375 162.4375 C5.28330334 159.28676222 5.28330334 159.28676222 4.46875 156.17578125 C3.53442751 151.83896771 3.59092022 147.34259177 3.37890625 142.921875 C3.05310374 139.54965104 2.39735361 136.54646917 1.52368164 133.28613281 C0.41062713 128.42709205 -0.01493329 123.44838066 -0.5625 118.5 C-0.75102539 116.89511719 -0.75102539 116.89511719 -0.94335938 115.2578125 C-2.76109374 99.23129592 -3.16996363 83.36033394 -3.125 67.25 C-3.1234491 66.26432037 -3.12189819 65.27864075 -3.12030029 64.26309204 C-3.03691672 18.98810063 -3.03691672 18.98810063 0 0 Z " fill="#76754F" transform="translate(64,447)"/>
<path d="M0 0 C0.33 0 0.66 0 1 0 C0.0961362 20.07201 -1.67485263 40.35662234 -6 60 C-6.2475 61.1653125 -6.495 62.330625 -6.75 63.53125 C-7.96122661 69.03223753 -9.36583688 74.34603738 -11.23828125 79.65625 C-12.7669751 84.35992339 -13.85282635 89.19163385 -15 94 C-15.66 94 -16.32 94 -17 94 C-17.12375 95.051875 -17.2475 96.10375 -17.375 97.1875 C-18 101 -18 101 -18.9765625 103.3203125 C-20.56192955 107.47131173 -20.88085336 111.74815639 -21.4375 116.13671875 C-22 119 -22 119 -24 121 C-24.64767793 123.57061311 -24.64767793 123.57061311 -25 126 C-25.66 126 -26.32 126 -27 126 C-27.0825 126.78375 -27.165 127.5675 -27.25 128.375 C-28.24365069 133.177645 -30.08713518 137.49809489 -32 142 C-32.66 142 -33.32 142 -34 142 C-34.28875 143.134375 -34.5775 144.26875 -34.875 145.4375 C-35.431875 147.2009375 -35.431875 147.2009375 -36 149 C-36.66 149.33 -37.32 149.66 -38 150 C-37.29807915 145.06678166 -35.36469225 140.74025318 -33.4375 136.1875 C-32.9434668 135.00510742 -32.9434668 135.00510742 -32.43945312 133.79882812 C-31.63041094 131.86416204 -30.81576148 129.93184247 -30 128 C-29.34 128 -28.68 128 -28 128 C-27.90976562 126.90300781 -27.81953125 125.80601562 -27.7265625 124.67578125 C-27.04374843 119.24776625 -25.19919923 114.32151204 -23.375 109.1875 C-13.39797979 80.09497666 -6.86518449 49.86613624 -3.29223633 19.33886719 C-2.52365793 12.77235533 -1.58444508 6.42117216 0 0 Z " fill="#686445" transform="translate(961,545)"/>
<path d="M0 0 C0 3 0 3 -1.28515625 4.54296875 C-2.16494141 5.35701172 -2.16494141 5.35701172 -3.0625 6.1875 C-5.53923979 8.55612813 -7.85670509 10.94030503 -10.0625 13.5625 C-17.39617466 22.05761635 -25.53418414 30.13097645 -34.1015625 37.37890625 C-36.32900033 39.2809365 -38.47022971 41.2660772 -40.625 43.25 C-46.82532671 48.83596507 -53.37676319 53.93046699 -60 59 C-60.63744141 59.48903809 -61.27488281 59.97807617 -61.93164062 60.48193359 C-69.96180643 66.62465016 -78.0935904 72.5656386 -86.50927734 78.171875 C-89.73245694 80.34030296 -92.74475644 82.58600885 -95.66796875 85.1484375 C-98.23292336 87.3927279 -100.70737662 89.17763758 -103.75 90.75 C-104.68328125 91.23984375 -105.6165625 91.7296875 -106.578125 92.234375 C-107.70734375 92.81703125 -108.8365625 93.3996875 -110 94 C-112.33371755 95.22441683 -114.66521329 96.45300204 -116.99658203 97.68188477 C-118.66831868 98.56209797 -120.34117664 99.44018475 -122.01513672 100.31616211 C-126.34226686 102.58273365 -130.62607537 104.90145333 -134.875 107.3125 C-139.7160055 109.9810667 -144.72505016 111.92918008 -149.91015625 113.828125 C-153.41272085 115.1565313 -156.75279918 116.71637886 -160.09765625 118.3984375 C-162.43549491 119.13771297 -163.68253281 118.66230535 -166 118 C-164.8864917 117.51926025 -164.8864917 117.51926025 -163.75048828 117.02880859 C-147.52822741 109.98745569 -131.82210787 102.47495992 -116.3515625 93.8984375 C-112.30604405 91.66527762 -108.28012474 89.73364946 -104 88 C-101.35420682 86.5848083 -99.33317101 85.35042987 -97.265625 83.17578125 C-94.56142838 80.57882001 -91.57987022 78.63623351 -88.4375 76.625 C-75.0663242 67.88166625 -62.17641802 58.34456752 -50 48 C-48.92980673 47.10402424 -47.85948679 46.20819976 -46.7890625 45.3125 C-31.9140272 32.78793607 -17.08056849 19.52971083 -4.47265625 4.69140625 C-3.04541597 3.05216211 -1.55487662 1.51774524 0 0 Z " fill="#625D40" transform="translate(849,809)"/>
<path d="M0 0 C5.38585478 2.85540183 9.77390863 6.13596831 14.3125 10.1875 C14.96839111 10.76483887 15.62428223 11.34217773 16.30004883 11.93701172 C18.20597568 13.61812014 20.1041905 15.30749865 22 17 C22.91523437 17.81339844 23.83046875 18.62679687 24.7734375 19.46484375 C27.19391452 21.63073986 29.59838212 23.81322334 32 26 C32.93070313 26.83789062 33.86140625 27.67578125 34.8203125 28.5390625 C42.46417378 35.44672707 49.82151851 42.61016731 57 50 C57.77214844 50.78890625 58.54429687 51.5778125 59.33984375 52.390625 C62.82112672 56.12107955 64.86637615 58.65504583 65 64 C60.35573105 60.30569515 56.30252609 56.26003352 52.3125 51.875 C44.61226809 43.42005786 36.71923539 35.14224539 28.00390625 27.71875 C24.73944053 24.91881839 21.57592396 22.00685814 18.39453125 19.11328125 C16.73193995 17.64596984 15.02002998 16.23343319 13.2734375 14.8671875 C10.97761528 12.9816153 10.18993449 11.65446925 9 9 C8.34 8.67 7.68 8.34 7 8 C7 7.34 7 6.68 7 6 C4.525 5.01 4.525 5.01 2 4 C2 3.34 2 2.68 2 2 C1.34 2 0.68 2 0 2 C0 1.34 0 0.68 0 0 Z " fill="#F1EE87" transform="translate(786,152)"/>
<path d="M0 0 C-3.16390026 4.2755409 -6.381539 8.49298895 -9.6953125 12.65380859 C-22.77672736 29.12237551 -34.67375273 46.35332974 -45.4453125 64.42480469 C-45.88617188 65.15860352 -46.32703125 65.89240234 -46.78125 66.6484375 C-47.16345703 67.29731934 -47.54566406 67.94620117 -47.93945312 68.61474609 C-48.28943359 69.07187988 -48.63941406 69.52901367 -49 70 C-49.66 70 -50.32 70 -51 70 C-50.6540151 65.27153967 -49.31350216 62.6091084 -46.44921875 59.00390625 C-44.85291405 56.796617 -43.57236001 54.46591812 -42.23852539 52.09448242 C-39.6541638 47.72404322 -36.74068727 43.56392035 -33.875 39.375 C-33.21064941 38.40240234 -32.54629883 37.42980469 -31.86181641 36.42773438 C-26.02280259 27.93410964 -19.97875652 19.67171064 -13.29296875 11.8203125 C-11.13478649 9.16578508 -10.23380435 7.12563768 -9 4 C-6.08474466 0.28053629 -4.61671428 -0.20603518 0 0 Z " fill="#CAC682" transform="translate(171,219)"/>
<path d="M0 0 C0.99 0.495 0.99 0.495 2 1 C-5.28185021 4.44043102 -12.76414946 7.13350379 -20.375 9.75 C-21.54933594 10.16121094 -22.72367188 10.57242188 -23.93359375 10.99609375 C-25.61775391 11.57810547 -25.61775391 11.57810547 -27.3359375 12.171875 C-28.35220215 12.5234668 -29.3684668 12.87505859 -30.41552734 13.23730469 C-33 14 -33 14 -36 14 C-36 14.66 -36 15.32 -36 16 C-43.82000312 18.36360223 -51.65558653 20.4617097 -59.625 22.25 C-60.39440918 22.42499023 -61.16381836 22.59998047 -61.95654297 22.78027344 C-65.41262072 23.54013658 -68.44346093 24 -72 24 C-72 24.66 -72 25.32 -72 26 C-72.83249268 26.14622803 -73.66498535 26.29245605 -74.52270508 26.44311523 C-77.61482555 26.98736125 -80.70657781 27.53364119 -83.7980957 28.08129883 C-85.13551692 28.31779108 -86.47308134 28.553475 -87.81079102 28.78833008 C-89.73491378 29.12628406 -91.65848062 29.46739839 -93.58203125 29.80859375 C-94.73936768 30.01282959 -95.8967041 30.21706543 -97.08911133 30.42749023 C-100.04806976 30.9453538 -100.04806976 30.9453538 -103 32 C-104.72795352 32.06802967 -106.45835365 32.08495645 -108.1875 32.0625 C-109.08855469 32.05347656 -109.98960937 32.04445313 -110.91796875 32.03515625 C-111.60503906 32.02355469 -112.29210937 32.01195312 -113 32 C-109.46813168 29.84940691 -106.33712007 29.6202272 -102.25 29.375 C-101.07953125 29.30023437 -99.9090625 29.22546875 -98.703125 29.1484375 C-97.81109375 29.09945312 -96.9190625 29.05046875 -96 29 C-96 28.34 -96 27.68 -96 27 C-95.26289795 26.8548999 -94.5257959 26.7097998 -93.76635742 26.56030273 C-62.75213765 20.41111743 -31.31406532 13.39669674 -2.17529297 0.77661133 C-1.45744629 0.52032959 -0.73959961 0.26404785 0 0 Z " fill="#675D41" transform="translate(681,928)"/>
<path d="M0 0 C18.78856453 -0.25469378 37.27400013 0.20061949 56 2 C56.495 3.98 56.495 3.98 57 6 C55.63294922 5.90150757 55.63294922 5.90150757 54.23828125 5.80102539 C42.82912437 5.02835301 31.43111582 4.69044648 20 4.4375 C18.14582667 4.39416454 16.29165992 4.35054635 14.4375 4.30664062 C9.95840228 4.20117944 5.47923387 4.09950298 1 4 C1.99 3.34 2.98 2.68 4 2 C2.68 1.34 1.36 0.68 0 0 Z " fill="#FEFEB0" transform="translate(500,59)"/>
<path d="M0 0 C0 0.66 0 1.32 0 2 C-0.66 2 -1.32 2 -2 2 C-1.505 3.485 -1.505 3.485 -1 5 C-1.79921875 5.72703125 -2.5984375 6.4540625 -3.421875 7.203125 C-13.21394904 16.15089931 -22.91909399 25.19775373 -31.53125 35.30859375 C-33.57559523 37.66285302 -35.76233199 39.83014011 -38 42 C-38.66 41.34 -39.32 40.68 -40 40 C-36.74138423 34.69643657 -32.79477301 30.3634688 -28.5 25.875 C-27.79311035 25.13088867 -27.0862207 24.38677734 -26.35791016 23.62011719 C-3.84101411 0 -3.84101411 0 0 0 Z " fill="#E4E19F" transform="translate(210,176)"/>
<path d="M0 0 C0.66 0.33 1.32 0.66 2 1 C1.35937622 2.20438721 1.35937622 2.20438721 0.70581055 3.43310547 C-8.76382152 21.30987967 -17.49372873 39.1951684 -25 58 C-25.37205566 58.92989746 -25.74411133 59.85979492 -26.12744141 60.81787109 C-26.41538574 61.53797363 -26.70333008 62.25807617 -27 63 C-28.59722327 59.01196453 -27.32914045 55.70259218 -26.0625 51.8125 C-25.83796143 51.11125 -25.61342285 50.41 -25.38208008 49.6875 C-22.88821426 42.21171188 -19.56876363 35.17860336 -16.06152344 28.13330078 C-14.98949014 25.97887877 -13.93497561 23.81652938 -12.8828125 21.65234375 C-4.48285576 4.48285576 -4.48285576 4.48285576 0 0 Z " fill="#AEAD72" transform="translate(119,290)"/>
<path d="M0 0 C9.36012081 1.39052793 17.26777551 16.44481242 22.52905273 23.51928711 C36.21438574 42.0906233 36.21438574 42.0906233 37 49 C33.53699708 45.71014723 30.81280649 42.46242044 28.25 38.4375 C21.98252857 28.842997 14.95373446 19.84272433 7.80541992 10.89501953 C5.00761615 7.37185923 2.44701162 3.77604124 0 0 Z " fill="#D3CE88" transform="translate(854,220)"/>
<path d="M0 0 C-4.14855197 3.59103906 -8.56662209 6.06019076 -13.375 8.625 C-20.31409991 12.38628816 -26.9281573 16.4391327 -33.40380859 20.95166016 C-37.80996715 24 -37.80996715 24 -40 24 C-40.33 23.01 -40.66 22.02 -41 21 C-33.75582019 15.72874626 -26.2641293 11.08747138 -18.5 6.625 C-17.4171875 5.99722656 -16.334375 5.36945313 -15.21875 4.72265625 C-5.00887059 -1.18631146 -5.00887059 -1.18631146 0 0 Z " fill="#FDFB8C" transform="translate(302,114)"/>
<path d="M0 0 C3.15407191 3.71240141 4.88886621 7.91643953 6.875 12.3125 C14.64048488 29.05540526 24.07793784 44.91815682 34.03808594 60.43896484 C34.55790039 61.2583252 35.07771484 62.07768555 35.61328125 62.921875 C36.07516846 63.63956055 36.53705566 64.35724609 37.01293945 65.09667969 C38 67 38 67 38 70 C37.731875 69.360625 37.46375 68.72125 37.1875 68.0625 C36.11332248 65.66868314 36.11332248 65.66868314 33 65 C31.69726562 63.3293457 31.69726562 63.3293457 30.40625 61.17578125 C29.93316406 60.39396484 29.46007812 59.61214844 28.97265625 58.80664062 C28.48667969 57.98357422 28.00070313 57.16050781 27.5 56.3125 C27.01402344 55.50876953 26.52804688 54.70503906 26.02734375 53.87695312 C23.49637897 49.65982789 21.17356057 45.4136587 19 41 C17.02459683 37.29908068 15.01189296 33.61868096 13 29.9375 C12.46632813 28.95716797 11.93265625 27.97683594 11.3828125 26.96679688 C10.86460938 26.01740234 10.34640625 25.06800781 9.8125 24.08984375 C9.34457031 23.23253662 8.87664062 22.37522949 8.39453125 21.49194336 C7.4243271 19.75824697 6.42265124 18.04194404 5.3972168 16.34033203 C3.9577658 13.9292579 2.86240606 11.54014069 1.8125 8.9375 C1.46832031 8.10089844 1.12414062 7.26429688 0.76953125 6.40234375 C0 4 0 4 0 0 Z " fill="#666043" transform="translate(101,695)"/>
<path d="M0 0 C0.33 0 0.66 0 1 0 C-1.27645051 50.55290102 -1.27645051 50.55290102 -7 62 C-7.66 62 -8.32 62 -9 62 C-9.66 65.63 -10.32 69.26 -11 73 C-12.03120821 68.87516717 -11.85750927 67.37303842 -10.92578125 63.35546875 C-10.6721582 62.21819336 -10.41853516 61.08091797 -10.15722656 59.90917969 C-9.73908691 58.06694824 -9.73908691 58.06694824 -9.3125 56.1875 C-6.64235572 43.95941768 -4.74479049 31.77365474 -3.29418945 19.34448242 C-2.52313091 12.77641442 -1.58490342 6.42302965 0 0 Z " fill="#6C6847" transform="translate(961,545)"/>
<path d="M0 0 C4.57775269 3.74543402 8.78542102 7.73473837 12.9375 11.9375 C17.46484111 16.50790573 22.08708411 20.84291733 27 25 C28.03738085 25.89997941 29.07374833 26.80112757 30.109375 27.703125 C37.70518021 34.29877463 45.46791956 40.62852446 53.42529297 46.78222656 C55.74685746 48.57756977 58.06018595 50.38346651 60.375 52.1875 C61.58303982 53.12537819 62.79123955 54.06305076 64 55 C56.64257911 55 50.05028875 47.65434078 44.74462891 43.01049805 C42.20867184 40.80307503 39.75969512 38.84245318 36.9375 36.9921875 C33.75482913 34.8337272 31.29247099 32.45275218 28.625 29.6875 C25.59677609 26.58606181 22.57088461 23.54157331 19.25 20.75 C14.97407581 17.09390515 10.99460311 13.14489209 7 9.1875 C6.31583008 8.5162207 5.63166016 7.84494141 4.92675781 7.15332031 C3.9730127 6.20150879 3.9730127 6.20150879 3 5.23046875 C2.4225 4.65707764 1.845 4.08368652 1.25 3.49291992 C0 2 0 2 0 0 Z " fill="#5F593E" transform="translate(185,821)"/>
<path d="M0 0 C0.99 0.495 0.99 0.495 2 1 C-0.26871003 3.49412674 -2.52761516 4.98694791 -5.5 6.5625 C-6.469375 7.07941406 -7.43875 7.59632813 -8.4375 8.12890625 C-9.62468081 8.75321151 -10.81221537 9.37684432 -12 10 C-13.52087918 10.80069418 -15.04170918 11.60148176 -16.5625 12.40234375 C-19.04501896 13.70935053 -21.52829198 15.0148026 -24.01416016 16.31542969 C-28.34148021 18.5824889 -32.62572967 20.90125716 -36.875 23.3125 C-41.7160055 25.9810667 -46.72505016 27.92918008 -51.91015625 29.828125 C-55.41272085 31.1565313 -58.75279918 32.71637886 -62.09765625 34.3984375 C-64.43549491 35.13771297 -65.68253281 34.66230535 -68 34 C-67.25766113 33.67950684 -66.51532227 33.35901367 -65.75048828 33.02880859 C-49.52822741 25.98745569 -33.82210787 18.47495992 -18.3515625 9.8984375 C-14.30594196 7.66333645 -10.26547317 5.76752287 -6 4 C-4.06461975 2.90600784 -4.06461975 2.90600784 -2.5625 1.8125 C-1.716875 1.214375 -0.87125 0.61625 0 0 Z " fill="#524D36" transform="translate(751,893)"/>
<path d="M0 0 C0.96128405 2.56701888 1.08246345 3.75386634 0.19897461 6.39086914 C-0.44285767 7.69979126 -0.44285767 7.69979126 -1.09765625 9.03515625 C-1.57009766 10.01033203 -2.04253906 10.98550781 -2.52929688 11.99023438 C-3.03525391 13.00408203 -3.54121094 14.01792969 -4.0625 15.0625 C-4.54138672 16.04927734 -5.02027344 17.03605469 -5.51367188 18.05273438 C-8.81854871 24.80848663 -12.34763502 31.42638933 -16 38 C-16.66 38 -17.32 38 -18 38 C-18.33 39.98 -18.66 41.96 -19 44 C-19.66 44 -20.32 44 -21 44 C-21.268125 44.86625 -21.53625 45.7325 -21.8125 46.625 C-24.31204209 53.72896174 -27.93604537 58.53370377 -33 64 C-33 60.60829522 -32.39146117 59.64200912 -30.6484375 56.80859375 C-30.1335376 55.959021 -29.6186377 55.10944824 -29.08813477 54.23413086 C-28.52280029 53.31124268 -27.95746582 52.38835449 -27.375 51.4375 C-22.22658211 42.87973315 -17.29968983 34.22974989 -12.5625 25.4375 C-11.99644043 24.39327881 -11.43038086 23.34905762 -10.84716797 22.27319336 C-6.9339034 14.971164 -3.39635328 7.55537222 0 0 Z " fill="#676043" transform="translate(922,695)"/>
<path d="M0 0 C1.68456632 2.52684948 2.83521182 4.73402167 4.0234375 7.5 C4.40282471 8.38147705 4.78221191 9.2629541 5.1730957 10.17114258 C5.56972412 11.10466553 5.96635254 12.03818848 6.375 13 C6.78129639 13.95608154 7.18759277 14.91216309 7.60620117 15.8972168 C11.43835502 24.96775565 14.8174972 33.90831588 17.3125 43.4375 C17.58864136 44.46870972 17.58864136 44.46870972 17.87036133 45.52075195 C18.76089345 49.08949658 19.06192475 51.49627271 18 55 C17.69819824 54.1342334 17.39639648 53.2684668 17.08544922 52.37646484 C15.93750297 49.09105405 14.78510107 45.80727167 13.62988281 42.52441406 C13.13564313 41.11714168 12.64306516 39.70928433 12.15234375 38.30078125 C9.16032091 29.71710918 5.9620512 21.33529121 2.19140625 13.06054688 C0.51408351 8.75175224 0.02119537 4.59939443 0 0 Z " fill="#A7A56D" transform="translate(923,324)"/>
<path d="M0 0 C2.60367058 2.60367058 3.15957352 5.3597623 4.125 8.8125 C4.33020264 9.53010498 4.53540527 10.24770996 4.74682617 10.98706055 C5.22237873 12.65961704 5.69397083 14.33330232 6.16259766 16.0078125 C6.9539449 18.83543693 7.75324755 21.66073951 8.55371094 24.48579407 C9.29380277 27.10368472 10.02816623 29.72315748 10.76092529 32.34310913 C11.12782283 33.65311238 11.49618423 34.96270654 11.86602783 36.2718811 C12.39112441 38.13422874 12.90858658 39.99872371 13.42578125 41.86328125 C13.72911377 42.94907471 14.03244629 44.03486816 14.3449707 45.15356445 C15 48 15 48 15 52 C14.01 52 13.02 52 12 52 C10.89143773 47.93052105 9.78903378 43.85943468 8.69189453 39.78686523 C8.31916452 38.40654424 7.94486083 37.02664705 7.56884766 35.6472168 C5.34471525 27.4831681 3.356804 19.36101491 2 11 C1.68675781 9.27716797 1.68675781 9.27716797 1.3671875 7.51953125 C0.91145833 5.01302083 0.45572917 2.50651042 0 0 Z " fill="#8E8D5E" transform="translate(938,361)"/>
<path d="M0 0 C3.97667928 0.57970467 7.58627939 1.43114105 11.3671875 2.78515625 C12.92058838 3.32849609 12.92058838 3.32849609 14.50537109 3.8828125 C15.61734863 4.27210938 16.72932617 4.66140625 17.875 5.0625 C28.59690061 8.73705127 39.37058996 11.79843072 50.375 14.5 C51.07171814 14.67121368 51.76843628 14.84242737 52.48626709 15.01882935 C58.30444345 16.44193151 64.11778789 17.86283642 70 19 C70 19.33 70 19.66 70 20 C57.53626268 19.30356766 44.61299893 18.03784944 33.12109375 12.90234375 C31.07799799 12.03318147 29.16249051 11.48388402 27 11 C23.09055416 10.10262221 19.51062204 8.68282346 15.80859375 7.15234375 C12.5158514 5.80135767 9.19833774 4.52376572 5.875 3.25 C4.75867188 2.82203125 3.64234375 2.3940625 2.4921875 1.953125 C1.66976563 1.63859375 0.84734375 1.3240625 0 1 C0 0.67 0 0.34 0 0 Z " fill="#57563B" transform="translate(353,933)"/>
<path d="M0 0 C2.1312385 3.19685775 3.04581747 6.16894863 4.0625 9.8125 C4.49481768 11.32458417 4.92853266 12.83626921 5.36328125 14.34765625 C5.61287598 15.21664551 5.8624707 16.08563477 6.11962891 16.98095703 C7.15579319 20.53425918 8.22182707 24.07822337 9.29296875 27.62109375 C9.49426895 28.28764481 9.69556915 28.95419586 9.90296936 29.64094543 C10.72162362 32.35078191 11.54065343 35.06049749 12.36306763 37.76919556 C12.94726955 39.69445289 13.52837132 41.62065009 14.109375 43.546875 C14.44936523 44.66932617 14.78935547 45.79177734 15.13964844 46.94824219 C15.89403748 49.62413977 16.50217319 52.26640879 17 55 C16.34 54.67 15.68 54.34 15 54 C14.375 50.9375 14.375 50.9375 14 48 C13.34 48 12.68 48 12 48 C8.8273704 38.33360515 6.05687344 28.64067753 3.70043945 18.74121094 C2.71865641 14.66058587 1.56176771 10.90088587 0 7 C-0.07646165 4.6679198 -0.09143299 2.33154122 0 0 Z " fill="#635F41" transform="translate(71,607)"/>
<path d="M0 0 C1.14464839 3.9302226 0.6575672 6.26958978 -0.4375 10.25 C-0.60926758 10.87463135 -0.78103516 11.4992627 -0.95800781 12.14282227 C-3.90644009 22.54724419 -7.50704316 32.76899215 -11 43 C-11.33 43 -11.66 43 -12 43 C-11.70866811 33.96871152 -10.25488768 26.40685486 -7 18 C-6.5683252 16.87247314 -6.5683252 16.87247314 -6.12792969 15.72216797 C-4.11618766 10.4690558 -2.06906428 5.23078048 0 0 Z " fill="#9B9A65" transform="translate(92,343)"/>
<path d="M0 0 C1.48288168 3.85549237 0.42952315 6.23809697 -1 10 C-1.37125 11.11375 -1.7425 12.2275 -2.125 13.375 C-2.41375 14.24125 -2.7025 15.1075 -3 16 C-3.66 16 -4.32 16 -5 16 C-5.0825 16.78375 -5.165 17.5675 -5.25 18.375 C-6.24365069 23.177645 -8.08713518 27.49809489 -10 32 C-10.66 32 -11.32 32 -12 32 C-12.433125 33.7015625 -12.433125 33.7015625 -12.875 35.4375 C-13.24625 36.613125 -13.6175 37.78875 -14 39 C-14.99 39.495 -14.99 39.495 -16 40 C-15.29807915 35.06678166 -13.36469225 30.74025318 -11.4375 26.1875 C-11.10814453 25.39923828 -10.77878906 24.61097656 -10.43945312 23.79882812 C-9.63041094 21.86416204 -8.81576148 19.93184247 -8 18 C-7.34 18 -6.68 18 -6 18 C-5.7834375 16.1128125 -5.7834375 16.1128125 -5.5625 14.1875 C-5.26251314 11.57332877 -4.84186703 9.52560108 -4 7 C-3.34 6.67 -2.68 6.34 -2 6 C-1.27306096 4.02111039 -0.60183749 2.02045442 0 0 Z " fill="#676143" transform="translate(939,655)"/>
<path d="M0 0 C1 2 1 2 0.40234375 4.2421875 C-1.36457601 7.71696563 -3.76851762 10.33422573 -6.4375 13.125 C-7.17323242 13.91197266 -7.17323242 13.91197266 -7.92382812 14.71484375 C-10.24089367 17.18512955 -12.58465082 19.62558895 -15 22 C-15.66 21.34 -16.32 20.68 -17 20 C-13.90190746 15.01544517 -10.2855149 10.87337722 -6.25 6.625 C-5.34701172 5.66400391 -5.34701172 5.66400391 -4.42578125 4.68359375 C-2.95437397 3.11876378 -1.47772179 1.55886836 0 0 Z " fill="#E0DC71" transform="translate(187,196)"/>
<path d="M0 0 C5.14965858 0.58706108 9.26176492 3.01930252 13.75 5.4375 C14.52988281 5.84548828 15.30976562 6.25347656 16.11328125 6.67382812 C21.87164252 9.74328505 21.87164252 9.74328505 23 12 C17.31220144 12.53742979 13.60877379 10.77556726 8.6875 8.25 C7.95982422 7.90195313 7.23214844 7.55390625 6.48242188 7.1953125 C5.79083984 6.84726563 5.09925781 6.49921875 4.38671875 6.140625 C3.75983154 5.82641602 3.13294434 5.51220703 2.48706055 5.18847656 C0.55825648 3.6469533 0.36938882 2.39086208 0 0 Z " fill="#FEFE82" transform="translate(703,102)"/>
<path d="M0 0 C0.66 0.33 1.32 0.66 2 1 C-4.93 14.365 -4.93 14.365 -12 28 C-12.33 28 -12.66 28 -13 28 C-13.78003151 21.79013874 -11.08071394 17.57179154 -8.1875 12.3125 C-7.73568359 11.45849609 -7.28386719 10.60449219 -6.81835938 9.72460938 C-4.83196608 6.03310768 -3.11254834 2.85830133 0 0 Z " fill="#BCBC7C" transform="translate(119,290)"/>
<path d="M0 0 C7.92 0 15.84 0 24 0 C22.02 0.99 22.02 0.99 20 2 C20.99 2.66 21.98 3.32 23 4 C15.74 4 8.48 4 1 4 C1.99 3.34 2.98 2.68 4 2 C2.68 1.34 1.36 0.68 0 0 Z " fill="#FFFFC1" transform="translate(500,59)"/>
<path d="M0 0 C0 0.33 0 0.66 0 1 C-0.83249268 1.14622803 -1.66498535 1.29245605 -2.52270508 1.44311523 C-5.61482555 1.98736125 -8.70657781 2.53364119 -11.7980957 3.08129883 C-13.13551692 3.31779108 -14.47308134 3.553475 -15.81079102 3.78833008 C-17.73491378 4.12628406 -19.65848062 4.46739839 -21.58203125 4.80859375 C-23.31803589 5.11494751 -23.31803589 5.11494751 -25.08911133 5.42749023 C-28.04806976 5.9453538 -28.04806976 5.9453538 -31 7 C-32.72795352 7.06802967 -34.45835365 7.08495645 -36.1875 7.0625 C-37.53908203 7.04896484 -37.53908203 7.04896484 -38.91796875 7.03515625 C-39.60503906 7.02355469 -40.29210937 7.01195312 -41 7 C-37.46813168 4.84940691 -34.33712007 4.6202272 -30.25 4.375 C-29.07953125 4.30023437 -27.9090625 4.22546875 -26.703125 4.1484375 C-25.81109375 4.09945312 -24.9190625 4.05046875 -24 4 C-24 3.34 -24 2.68 -24 2 C-15.92046224 0.18655665 -8.26747851 -0.23658921 0 0 Z " fill="#373727" transform="translate(609,953)"/>
<path d="M0 0 C0.73046875 1.5703125 0.73046875 1.5703125 1 4 C-0.13536401 6.43501843 -1.29315092 8.59861034 -2.6875 10.875 C-3.04005859 11.47441406 -3.39261719 12.07382812 -3.75585938 12.69140625 C-4.81460154 14.47597714 -5.90106947 16.2399363 -7 18 C-7.3604541 18.58813477 -7.7209082 19.17626953 -8.09228516 19.78222656 C-9.0053182 21.22528482 -9.99649192 22.61832782 -11 24 C-11.66 24 -12.32 24 -13 24 C-12.6453848 19.1535922 -11.19464686 16.52569994 -8.33203125 12.796875 C-7.01978375 11.02668776 -5.94113833 9.23895846 -4.875 7.3125 C-3.3861217 4.68214834 -1.8815738 2.35196725 0 0 Z " fill="#CFCB86" transform="translate(133,265)"/>
<path d="M0 0 C13.11847015 10.70895522 13.11847015 10.70895522 14.9375 17.5 C14.958125 18.325 14.97875 19.15 15 20 C1.88152985 9.29104478 1.88152985 9.29104478 0.0625 2.5 C0.041875 1.675 0.02125 0.85 0 0 Z " fill="#DDDD63" transform="translate(836,196)"/>
<path d="M0 0 C0.33 0 0.66 0 1 0 C1.50363469 9.55040602 0.39704476 18.70537064 -0.85595703 28.15625 C-1.81963844 35.433825 -2.58470288 42.66785776 -3 50 C-3.33 50 -3.66 50 -4 50 C-4.52565249 33.41274353 -3.35413701 16.27113273 0 0 Z " fill="#979666" transform="translate(67,433)"/>
<path d="M0 0 C2.56616632 3.84924948 2.55097676 6.4349304 3 11 C3.66 11 4.32 11 5 11 C6.36978501 14.09750602 7.71806572 17.20391657 9.0625 20.3125 C9.45244141 21.19357422 9.84238281 22.07464844 10.24414062 22.98242188 C10.60830078 23.82998047 10.97246094 24.67753906 11.34765625 25.55078125 C11.85824585 26.72120972 11.85824585 26.72120972 12.37915039 27.9152832 C13 30 13 30 12 33 C9 27.25 9 27.25 9 25 C8.34 25 7.68 25 7 25 C6.1605118 22.89828133 5.32860344 20.79353375 4.5 18.6875 C3.80390625 16.92986328 3.80390625 16.92986328 3.09375 15.13671875 C2 12 2 12 2 9 C1.34 9 0.68 9 0 9 C0 6.03 0 3.06 0 0 Z " fill="#676143" transform="translate(88,662)"/>
<path d="M0 0 C0 4.41590085 -2.78047551 6.70350374 -5.5 9.9375 C-10.79516589 16.37419053 -15.5372841 22.95153401 -20 30 C-20.66 29.67 -21.32 29.34 -22 29 C-17.10271198 18.21581653 -7.69259178 8.91477926 0 0 Z " fill="#0C0C01" transform="translate(160,226)"/>
<path d="M0 0 C4.69830094 0 7.01801308 1.57109346 10.3125 4.6875 C13.42890654 7.98198692 15 10.30169906 15 15 C9.72997792 10.60831493 4.64697949 6.0573621 0 1 C0 0.67 0 0.34 0 0 Z " fill="#EDEEA5" transform="translate(822,186)"/>
<path d="M0 0 C3.72733735 1.46633573 5.15554626 3.30853534 7.234375 6.68359375 C7.80800781 7.61107422 8.38164062 8.53855469 8.97265625 9.49414062 C9.85244141 10.95110352 9.85244141 10.95110352 10.75 12.4375 C11.35199219 13.40494141 11.95398438 14.37238281 12.57421875 15.36914062 C17 22.59992382 17 22.59992382 17 26 C16.731875 25.360625 16.46375 24.72125 16.1875 24.0625 C15.11332248 21.66868314 15.11332248 21.66868314 12 21 C10.66552734 19.28173828 10.66552734 19.28173828 9.3359375 17.0703125 C8.85382813 16.27496094 8.37171875 15.47960937 7.875 14.66015625 C7.38 13.82355469 6.885 12.98695313 6.375 12.125 C5.87226562 11.29613281 5.36953125 10.46726562 4.8515625 9.61328125 C1.15296466 3.45889399 1.15296466 3.45889399 0 0 Z " fill="#5B563C" transform="translate(122,739)"/>
<path d="M0 0 C-3.80304814 5.19210472 -7.76158542 10.15609762 -12 15 C-13 13 -13 13 -12.36328125 10.9765625 C-7.33429135 -0.2779056 -7.33429135 -0.2779056 0 0 Z " fill="#B7B575" transform="translate(171,219)"/>
<path d="M0 0 C4.66666667 4 9.33333333 8 14 12 C13.67 12.66 13.34 13.32 13 14 C7.18922704 11.39517074 3.04581335 8.97946258 -1 4 C-0.65234375 1.8125 -0.65234375 1.8125 0 0 Z " fill="#EBE778" transform="translate(813,174)"/>
<path d="M0 0 C-1.54787502 3.83450856 -3.93722746 6.02555699 -7 8.75 C-7.886875 9.54921875 -8.77375 10.3484375 -9.6875 11.171875 C-12 13 -12 13 -14 13 C-14 12.34 -14 11.68 -14 11 C-13.34 11 -12.68 11 -12 11 C-12.33 10.01 -12.66 9.02 -13 8 C-11.59466816 6.65472507 -10.17527548 5.3241269 -8.75 4 C-7.96109375 3.2575 -7.1721875 2.515 -6.359375 1.75 C-4 0 -4 0 0 0 Z " fill="#ECE997" transform="translate(222,167)"/>
<path d="M0 0 C0.33 0 0.66 0 1 0 C0.22095672 14.78132118 0.22095672 14.78132118 -2 21 C-2.66 21 -3.32 21 -4 21 C-4.66 23.31 -5.32 25.62 -6 28 C-7.22341945 24.32974164 -6.63093459 22.9174406 -5.56640625 19.23828125 C-5.24736328 18.12001953 -4.92832031 17.00175781 -4.59960938 15.84960938 C-4.25736328 14.68236328 -3.91511719 13.51511719 -3.5625 12.3125 C-3.05493164 10.54422852 -3.05493164 10.54422852 -2.53710938 8.74023438 C-1.69899473 5.82453978 -0.85300944 2.9113652 0 0 Z " fill="#818154" transform="translate(80,376)"/>
<path d="M0 0 C1.18239258 0.07831055 1.18239258 0.07831055 2.38867188 0.15820312 C4.32201529 0.28709269 6.25482164 0.42399494 8.1875 0.5625 C8.1875 0.8925 8.1875 1.2225 8.1875 1.5625 C6.13671875 1.79036458 4.0859375 2.01822917 2.03515625 2.24609375 C0.17609771 2.38136614 0.17609771 2.38136614 -0.8125 3.5625 C-2.73828125 3.73046875 -2.73828125 3.73046875 -5.125 3.75 C-5.90488281 3.76417969 -6.68476562 3.77835938 -7.48828125 3.79296875 C-10.0157668 3.54234413 -11.62968031 2.82623772 -13.8125 1.5625 C-13.8125 1.2325 -13.8125 0.9025 -13.8125 0.5625 C-9.12565199 -0.70548493 -4.77955063 -0.34855063 0 0 Z " fill="#FFFF75" transform="translate(532.8125,59.4375)"/>
<path d="M0 0 C-0.33 0.66 -0.66 1.32 -1 2 C-3.84214068 2.94738023 -5.67608391 3.13460559 -8.625 3.125 C-9.81996094 3.12886719 -9.81996094 3.12886719 -11.0390625 3.1328125 C-13 3 -13 3 -14 2 C-15.34747084 1.76924918 -16.70377565 1.58846937 -18.0625 1.4375 C-19.361875 1.293125 -20.66125 1.14875 -22 1 C-22 0.67 -22 0.34 -22 0 C-14.48751716 -0.94450945 -7.51248284 -0.94450945 0 0 Z " fill="#FFFF75" transform="translate(505,60)"/>
<path d="M0 0 C0.33 0.99 0.66 1.98 1 3 C-2.3 6.3 -5.6 9.6 -9 13 C-10 10 -10 10 -8.8125 7.5625 C-6.23503662 3.91850005 -4.29132805 1.43044268 0 0 Z " fill="#E2E3A5" transform="translate(197,188)"/>
<path d="M0 0 C0 0.66 0 1.32 0 2 C-2.3359375 3.7265625 -2.3359375 3.7265625 -5.375 5.625 C-6.37273437 6.25664062 -7.37046875 6.88828125 -8.3984375 7.5390625 C-11 9 -11 9 -13 9 C-13.33 8.01 -13.66 7.02 -14 6 C-12.92250558 5.17977251 -11.83770492 4.36913831 -10.75 3.5625 C-10.14671875 3.11003906 -9.5434375 2.65757812 -8.921875 2.19140625 C-5.90754862 0.32276896 -3.52481479 0 0 0 Z " fill="#FBF791" transform="translate(275,129)"/>
<path d="M0 0 C5.06998019 0.65419099 9.41990777 2.8546409 14 5 C14 5.66 14 6.32 14 7 C15.918125 7.185625 15.918125 7.185625 17.875 7.375 C21.75 7.75 21.75 7.75 24 10 C22.24970238 9.68917128 20.49977306 9.37626821 18.75 9.0625 C17.77546875 8.88847656 16.8009375 8.71445312 15.796875 8.53515625 C13.50278205 8.09620271 11.25708029 7.59651408 9 7 C9 6.34 9 5.68 9 5 C8.071875 4.731875 7.14375 4.46375 6.1875 4.1875 C3.23759634 3.08851629 1.94384814 2.37581439 0 0 Z " fill="#544E36" transform="translate(329,923)"/>
<path d="M0 0 C4.42968326 3.93749623 8.68467532 8.97288308 9.3125 15 C9.1578125 15.99 9.1578125 15.99 9 17 C4.86297417 13.47586688 2.13052394 8.95958031 0 4 C0 2.68 0 1.36 0 0 Z " fill="#BBB774" transform="translate(890,265)"/>
<path d="M0 0 C-0.33 0.66 -0.66 1.32 -1 2 C-3.1796875 2.44921875 -3.1796875 2.44921875 -5.875 2.6875 C-6.75929688 2.77386719 -7.64359375 2.86023438 -8.5546875 2.94921875 C-11 3 -11 3 -14 2 C-15.66362417 1.65179959 -17.32995171 1.31595508 -19 1 C-19 0.67 -19 0.34 -19 0 C-16.77369595 -0.39163671 -14.54376235 -0.76267785 -12.3125 -1.125 C-11.07113281 -1.33382812 -9.82976562 -1.54265625 -8.55078125 -1.7578125 C-4.96298276 -2.00252483 -3.15186273 -1.62715667 0 0 Z " fill="#FEFE83" transform="translate(471,63)"/>
<path d="M0 0 C1.48288168 3.85549237 0.42952315 6.23809697 -1 10 C-1.37125 11.11375 -1.7425 12.2275 -2.125 13.375 C-2.41375 14.24125 -2.7025 15.1075 -3 16 C-3.66 16 -4.32 16 -5 16 C-5.33 17.98 -5.66 19.96 -6 22 C-7.27847309 18.38766999 -6.71332411 15.95393249 -5.6875 12.3125 C-5.42324219 11.33925781 -5.15898438 10.36601563 -4.88671875 9.36328125 C-4 7 -4 7 -2 6 C-1.27306096 4.02111039 -0.60183749 2.02045442 0 0 Z " fill="#575439" transform="translate(939,655)"/>
<path d="M0 0 C3.70953944 0.55684036 5.25975843 1.94835464 7.6875 4.75 C8.28949219 5.42546875 8.89148438 6.1009375 9.51171875 6.796875 C11.1553165 9.22991733 11.62128761 11.11168681 12 14 C6.99345667 10.51059101 3.48289714 5.94832361 0 1 C0 0.67 0 0.34 0 0 Z " fill="#DCD991" transform="translate(854,220)"/>
<path d="M0 0 C4.60415193 3.34847413 8.6918413 7.3571375 12 12 C12 12.99 12 13.98 12 15 C11.278125 14.21625 10.55625 13.4325 9.8125 12.625 C7.11661155 10.10883745 5.35733609 9.27034339 2 8 C-0.1519437 4.77208445 -0.20086443 3.71599191 0 0 Z " fill="#787444" transform="translate(850,211)"/>
<path d="M0 0 C5.94 3.465 5.94 3.465 12 7 C11.67 7.99 11.34 8.98 11 10 C7.47975677 9.3481031 4.85251303 8.17691784 2 6 C1.34 4.02 0.68 2.04 0 0 Z " fill="#FDFB85" transform="translate(749,126)"/>
<path d="M0 0 C0.33 0.99 0.66 1.98 1 3 C0.401875 3.391875 -0.19625 3.78375 -0.8125 4.1875 C-3.15667527 5.90296633 -3.15667527 5.90296633 -4.4375 8.625 C-6 11 -6 11 -8.6875 11.8125 C-9.450625 11.874375 -10.21375 11.93625 -11 12 C-11 11.01 -11 10.02 -11 9 C-8.59375 6.73828125 -8.59375 6.73828125 -5.5 4.3125 C-4.4790625 3.50425781 -3.458125 2.69601563 -2.40625 1.86328125 C-1.6121875 1.24839844 -0.818125 0.63351563 0 0 Z " fill="#F9F878" transform="translate(231,156)"/>
<path d="M0 0 C3.45854519 3.45854519 4 7.21904213 4 12 C4.66 12 5.32 12 6 12 C9.07692308 18.4 9.07692308 18.4 8.6875 21.4375 C8.460625 21.953125 8.23375 22.46875 8 23 C6 21 6 21 5.875 18.375 C5.91625 17.59125 5.9575 16.8075 6 16 C5.34 16 4.68 16 4 16 C3.32586789 14.08594633 2.6609668 12.16863974 2 10.25 C1.62875 9.18265625 1.2575 8.1153125 0.875 7.015625 C0 4 0 4 0 0 Z " fill="#11110B" transform="translate(79,643)"/>
<path d="M0 0 C0 5.07201795 -2.28762979 8.23792954 -5.6875 11.875 C-6.450625 12.57625 -7.21375 13.2775 -8 14 C-8.66 13.34 -9.32 12.68 -10 12 C-7.11954533 7.34695784 -3.96084779 3.78080926 0 0 Z " fill="#B3B16B" transform="translate(180,204)"/>
<path d="M0 0 C0.53625 0.37125 1.0725 0.7425 1.625 1.125 C-1.38990557 3.13493705 -3.5899927 3.85123341 -7.0625 4.75 C-8.05636719 5.01039062 -9.05023438 5.27078125 -10.07421875 5.5390625 C-10.83347656 5.73242188 -11.59273438 5.92578125 -12.375 6.125 C-12.705 5.465 -13.035 4.805 -13.375 4.125 C-11.725 3.795 -10.075 3.465 -8.375 3.125 C-8.375 2.465 -8.375 1.805 -8.375 1.125 C-2.95961538 -1.09038462 -2.95961538 -1.09038462 0 0 Z " fill="#FEFEA7" transform="translate(380.375,79.875)"/>
<path d="M0 0 C1.67481715 3.087489 2.70402783 6.11379928 3.625 9.5 C3.88539063 10.4384375 4.14578125 11.376875 4.4140625 12.34375 C5 15 5 15 5 19 C4.01 19 3.02 19 2 19 C1.66225668 16.77149723 1.3299813 14.54216533 1 12.3125 C0.814375 11.07113281 0.62875 9.82976562 0.4375 8.55078125 C0.07899589 5.64113629 -0.08942256 2.92299978 0 0 Z " fill="#7A7C50" transform="translate(948,394)"/>
<path d="M0 0 C1.98 0 3.96 0 6 0 C6 0.99 6 1.98 6 3 C6.66 3 7.32 3 8 3 C9.02104551 3.97850195 10.0206121 4.97980427 11 6 C11.66 6.33 12.32 6.66 13 7 C13 7.66 13 8.32 13 9 C14.32 9.66 15.64 10.32 17 11 C16.67 11.66 16.34 12.32 16 13 C13.32949286 11.0259732 10.66426219 9.04494509 8 7.0625 C7.236875 6.49853516 6.47375 5.93457031 5.6875 5.35351562 C4.965625 4.81533203 4.24375 4.27714844 3.5 3.72265625 C2.8296875 3.22515869 2.159375 2.72766113 1.46875 2.21508789 C0.9840625 1.81410889 0.499375 1.41312988 0 1 C0 0.67 0 0.34 0 0 Z " fill="#F1EEA2" transform="translate(780,151)"/>
<path d="M0 0 C0.33 0.99 0.66 1.98 1 3 C-1.95183101 5.95183101 -4.95511947 6.08663988 -9 7 C-9.66 6.01 -10.32 5.02 -11 4 C-9.72942818 3.52014033 -8.45853152 3.0411407 -7.1875 2.5625 C-6.47980469 2.29566406 -5.77210938 2.02882813 -5.04296875 1.75390625 C-3.37327604 1.13774814 -1.68842296 0.56280765 0 0 Z " fill="#FEFC80" transform="translate(391,75)"/>
<path d="M0 0 C0 0.66 0 1.32 0 2 C0.66 2 1.32 2 2 2 C2 2.66 2 3.32 2 4 C0.58297487 3.85769192 -0.8336096 3.71099254 -2.25 3.5625 C-3.43335938 3.44068359 -3.43335938 3.44068359 -4.640625 3.31640625 C-6.82364639 3.02365007 -8.8773182 2.57935581 -11 2 C-11 1.34 -11 0.68 -11 0 C-7.18243176 -1.37432457 -3.92744671 -0.67975039 0 0 Z " fill="#FEFDA1" transform="translate(598,67)"/>
<path d="M0 0 C1.85610526 2.7841579 3.26903445 5.47610783 4.6875 8.5 C5.14511719 9.4590625 5.60273437 10.418125 6.07421875 11.40625 C7 14 7 14 6 17 C1.19292241 11.87245057 0 6.87081055 0 0 Z " fill="#9C9D66" transform="translate(923,324)"/>
<path d="M0 0 C2.97 1.65 5.94 3.3 9 5 C9 5.66 9 6.32 9 7 C2.6 6.50769231 2.6 6.50769231 -0.4375 3.9375 C-1.2109375 2.9784375 -1.2109375 2.9784375 -2 2 C-1.34 1.34 -0.68 0.68 0 0 Z " fill="#FBF996" transform="translate(761,134)"/>
<path d="M0 0 C4.85963179 0.60745397 8.7405518 2.72758967 13 5 C9.3145316 6.05071669 6.75373092 5.95839938 3 5 C1.125 3.5625 1.125 3.5625 0 2 C0 1.34 0 0.68 0 0 Z " fill="#FFFF67" transform="translate(703,102)"/>
<path d="M0 0 C3.67758005 3.28355362 5.81389118 6.62778237 8 11 C7.67 11.66 7.34 12.32 7 13 C3.60539215 11.62071723 2.27474832 10.35343571 0.6875 7.0625 C0.16736328 6.02802734 0.16736328 6.02802734 -0.36328125 4.97265625 C-1 3 -1 3 0 0 Z " fill="#B1AE6D" transform="translate(899,279)"/>
<path d="M0 0 C6.17398461 3.15267299 10.94783982 7.28006804 16 12 C11 12 11 12 8.875 10.125 C7 8 7 8 7 6 C4.525 5.01 4.525 5.01 2 4 C2 3.34 2 2.68 2 2 C1.34 2 0.68 2 0 2 C0 1.34 0 0.68 0 0 Z " fill="#FFFF70" transform="translate(786,152)"/>
<path d="M0 0 C0.33 0.66 0.66 1.32 1 2 C-1.22175915 6.57421001 -4.64419019 10.2315016 -8 14 C-8 10.37346766 -6.99610743 8.94576483 -5.125 5.875 C-4.59132813 4.98554687 -4.05765625 4.09609375 -3.5078125 3.1796875 C-2 1 -2 1 0 0 Z " fill="#585339" transform="translate(897,745)"/>
<path d="M0 0 C-2.51884651 2.51884651 -4.43644242 2.8257588 -7.875 3.6875 C-8.92429687 3.95949219 -9.97359375 4.23148438 -11.0546875 4.51171875 C-13.85166838 4.97540921 -15.372192 4.94575698 -18 4 C-17.01 4 -16.02 4 -15 4 C-15 3.34 -15 2.68 -15 2 C-9.75614911 0.2520497 -5.52677733 -0.19392201 0 0 Z " fill="#4A4631" transform="translate(645,943)"/>
<path d="M0 0 C1.65 0.33 3.3 0.66 5 1 C1.67149253 4.59478807 -1.98971331 7.22364768 -6 10 C-6 9.01 -6 8.02 -6 7 C-5.01 6.34 -4.02 5.68 -3 5 C-1.94895617 3.36504293 -0.94011682 1.70116376 0 0 Z " fill="#F1EDA0" transform="translate(234,154)"/>
<path d="M0 0 C1.64846769 0.44876616 3.29373455 0.90930488 4.9375 1.375 C5.85402344 1.63023438 6.77054688 1.88546875 7.71484375 2.1484375 C10 3 10 3 11 5 C6.58937864 6.0257259 4.07369424 6.03684712 0 4 C0 2.68 0 1.36 0 0 Z " fill="#FEFE7E" transform="translate(652,81)"/>
<path d="M0 0 C4.29 0.99 8.58 1.98 13 3 C11.68 3.33 10.36 3.66 9 4 C8.67 4.66 8.34 5.32 8 6 C6.02 5.34 4.04 4.68 2 4 C2 3.34 2 2.68 2 2 C1.34 2 0.68 2 0 2 C0 1.34 0 0.68 0 0 Z " fill="#FEFD78" transform="translate(598,67)"/>
<path d="M0 0 C0.99 0.495 0.99 0.495 2 1 C2 1.66 2 2.32 2 3 C2.66 3 3.32 3 4 3 C6.27678571 11.03571429 6.27678571 11.03571429 5 15 C4.16013916 13.06532058 3.32831973 11.12714871 2.5 9.1875 C2.0359375 8.10855469 1.571875 7.02960938 1.09375 5.91796875 C0 3 0 3 0 0 Z " fill="#B8B478" transform="translate(927,338)"/>
<path d="M0 0 C4.00972202 3.67557852 6.45335415 7.18966896 9 12 C8.01 11.67 7.02 11.34 6 11 C6 10.34 6 9.68 6 9 C5.38125 8.938125 4.7625 8.87625 4.125 8.8125 C2 8 2 8 0.75 5.625 C0 3 0 3 0 0 Z " fill="#C0BD79" transform="translate(875,243)"/>
<path d="M0 0 C0 0.66 0 1.32 0 2 C0.66 2 1.32 2 2 2 C2.33 2.99 2.66 3.98 3 5 C-1.50802601 3.74194623 -4.4912812 2.09592835 -8 -1 C-4.59745511 -2.2151946 -3.06748874 -1.86240388 0 0 Z " fill="#FDF9AA" transform="translate(730,115)"/>
<path d="M0 0 C0.6796875 2.08203125 0.6796875 2.08203125 1 4 C-0.48199902 3.55090939 -1.96055236 3.09043436 -3.4375 2.625 C-4.26121094 2.36976562 -5.08492187 2.11453125 -5.93359375 1.8515625 C-8 1 -8 1 -9 -1 C-5.1851221 -2.27162597 -3.6068725 -1.64661571 0 0 Z " fill="#FDFAA8" transform="translate(703,101)"/>
<path d="M0 0 C4.455 2.97 4.455 2.97 9 6 C8.67 6.66 8.34 7.32 8 8 C5.69 7.34 3.38 6.68 1 6 C0.67 4.02 0.34 2.04 0 0 Z " fill="#FDFB7C" transform="translate(776,144)"/>
<path d="M0 0 C0.66 0.33 1.32 0.66 2 1 C-1.84919283 5.33034194 -5.72289646 7.6560756 -11 10 C-11 9.34 -11 8.68 -11 8 C-9.217871 6.55925285 -7.37339724 5.19489351 -5.5 3.875 C-4.4790625 3.15054688 -3.458125 2.42609375 -2.40625 1.6796875 C-1.6121875 1.12539062 -0.818125 0.57109375 0 0 Z " fill="#FFFF69" transform="translate(254,139)"/>
<path d="M0 0 C-3.28804981 2.91227269 -5.59885603 4.49701212 -10 5 C-10 4.34 -10 3.68 -10 3 C-9.34 3 -8.68 3 -8 3 C-7.67 2.01 -7.34 1.02 -7 0 C-4.3333581 -1.33332095 -2.83319697 -0.67102033 0 0 Z " fill="#FDF9AA" transform="translate(302,114)"/>
<path d="M0 0 C1 2 1 2 0.4375 4.0625 C-1 6 -1 6 -4 6.8125 C-7 7 -7 7 -9 6 C-6.03 4.02 -3.06 2.04 0 0 Z " fill="#FDFC7A" transform="translate(279,123)"/>
<path d="M0 0 C1.3805087 3.76668598 0.59568159 6.44789173 -0.4375 10.25 C-0.72496094 11.32765625 -1.01242188 12.4053125 -1.30859375 13.515625 C-1.53675781 14.33546875 -1.76492187 15.1553125 -2 16 C-2.33 16 -2.66 16 -3 16 C-3.37952295 9.80112515 -2.8352113 5.5522888 0 0 Z " fill="#A8A972" transform="translate(76,397)"/>
<path d="M0 0 C0.66 1.32 1.32 2.64 2 4 C0.7260411 6.03833424 -0.61061923 8.03852126 -2 10 C-2.66 10 -3.32 10 -4 10 C-3.5205537 5.78087253 -2.83374881 3.20336822 0 0 Z " fill="#BAB876" transform="translate(124,279)"/>
<path d="M0 0 C3.45195767 1.4258086 5.1014256 3.09746334 7.25 6.125 C8.03117188 7.21167969 8.03117188 7.21167969 8.828125 8.3203125 C9.40820312 9.15175781 9.40820312 9.15175781 10 10 C9.67 10.66 9.34 11.32 9 12 C8.443125 11.278125 7.88625 10.55625 7.3125 9.8125 C5.0270024 6.92913577 5.0270024 6.92913577 2.25 4.3125 C0 2 0 2 0 0 Z " fill="#5F583E" transform="translate(143,771)"/>
<path d="M0 0 C1.72357119 2.58535679 2.44735018 4.03811614 3.1875 6.9375 C3.36667969 7.60652344 3.54585938 8.27554688 3.73046875 8.96484375 C4.03268678 11.24680888 3.68756692 12.82026659 3 15 C2.67 13.02 2.34 11.04 2 9 C1.34 9 0.68 9 0 9 C0 6.03 0 3.06 0 0 Z " fill="#575439" transform="translate(88,662)"/>
<path d="M0 0 C8.26086957 -0.15886288 8.26086957 -0.15886288 11 1 C11.33 1.99 11.66 2.98 12 4 C7.91621717 3.25749403 3.98060777 2.17076699 0 1 C0 0.67 0 0.34 0 0 Z " fill="#3D3D2A" transform="translate(386,945)"/>
<path d="M0 0 C0 0.99 0 1.98 0 3 C-1.98 3.66 -3.96 4.32 -6 5 C-6 3.68 -6 2.36 -6 1 C-4 0 -4 0 0 0 Z " fill="#FDF9A3" transform="translate(329,99)"/>
<path d="M0 0 C0.66 0.33 1.32 0.66 2 1 C0.59627198 2.20276695 -0.82352097 3.38680519 -2.25 4.5625 C-3.43335938 5.55443359 -3.43335938 5.55443359 -4.640625 6.56640625 C-7 8 -7 8 -9.296875 7.71484375 C-9.85890625 7.47894531 -10.4209375 7.24304688 -11 7 C-9.21475351 5.80286983 -7.4215972 4.61752721 -5.625 3.4375 C-4.62726562 2.77621094 -3.62953125 2.11492188 -2.6015625 1.43359375 C-1.74304688 0.96050781 -0.88453125 0.48742187 0 0 Z " fill="#5E593E" transform="translate(762,885)"/>
<path d="M0 0 C0.85178626 2.38500154 1.09806909 3.6665651 0.375 6.125 C-1.41247034 8.56245955 -3.1632534 9.10418528 -6 10 C-4.34832443 6.4213696 -2.21713508 3.25179812 0 0 Z " fill="#B7B572" transform="translate(133,265)"/>
<path d="M0 0 C0.99 0.33 1.98 0.66 3 1 C2.67 1.99 2.34 2.98 2 4 C-0.5625 5.1875 -0.5625 5.1875 -3 6 C-3.33 5.01 -3.66 4.02 -4 3 C-2.1875 1.4375 -2.1875 1.4375 0 0 Z " fill="#FCF8A9" transform="translate(265,132)"/>
<path d="M0 0 C0.91007813 0.10183594 1.82015625 0.20367187 2.7578125 0.30859375 C3.45648437 0.39238281 4.15515625 0.47617187 4.875 0.5625 C1.9754339 2.22126079 -0.04135209 2.7986216 -3.375 2.6875 C-5.23125 2.625625 -5.23125 2.625625 -7.125 2.5625 C-7.125 1.9025 -7.125 1.2425 -7.125 0.5625 C-4.50184968 -0.74907516 -2.89466564 -0.33399988 0 0 Z " fill="#FFFF69" transform="translate(549.125,60.4375)"/>
<path d="M0 0 C0 0.66 0 1.32 0 2 C-8.57142857 2.28571429 -8.57142857 2.28571429 -12 0 C-7.6835078 -0.76173392 -4.25566547 -1.16063604 0 0 Z " fill="#FFFF69" transform="translate(482,61)"/>
<path d="M0 0 C5.29500913 1.36157378 7.23745533 4.60343955 10 9 C6.78956118 7.61811547 4.95063635 6.07578097 2.75 3.375 C2.22921875 2.74335937 1.7084375 2.11171875 1.171875 1.4609375 C0.78515625 0.97882812 0.3984375 0.49671875 0 0 Z " fill="#4D4A33" transform="translate(213,849)"/>
<path d="M0 0 C2.4375 0.625 2.4375 0.625 5 2 C5.8125 5.125 5.8125 5.125 6 8 C1.3125 4.38671875 1.3125 4.38671875 0 3 C0 2.01 0 1.02 0 0 Z " fill="#D0D189" transform="translate(845,208)"/>
<path d="M0 0 C0.66 0.33 1.32 0.66 2 1 C1.01 1.8971875 1.01 1.8971875 0 2.8125 C-2.3373846 4.87501834 -2.3373846 4.87501834 -2 8 C-5 8 -5 8 -7 7 C-4.69 4.69 -2.38 2.38 0 0 Z " fill="#F1F15E" transform="translate(202,181)"/>
<path d="M0 0 C0.75 1.6875 0.75 1.6875 1 4 C-0.8125 6.75 -0.8125 6.75 -3 9 C-3.66 9 -4.32 9 -5 9 C-5 8.34 -5 7.68 -5 7 C-4.34 7 -3.68 7 -3 7 C-3.33 6.01 -3.66 5.02 -4 4 C-2.68 2.68 -1.36 1.36 0 0 Z " fill="#F5F488" transform="translate(213,171)"/>
<path d="M0 0 C0.598125 0.20625 1.19625 0.4125 1.8125 0.625 C2.1425 1.945 2.4725 3.265 2.8125 4.625 C-2.9375 3.875 -2.9375 3.875 -5.1875 1.625 C-2.1875 -0.375 -2.1875 -0.375 0 0 Z " fill="#FDF8AC" transform="translate(665.1875,85.375)"/>
<path d="M0 0 C0.33 0.66 0.66 1.32 1 2 C0.360625 2.28875 -0.27875 2.5775 -0.9375 2.875 C-3.15206079 3.82823451 -3.15206079 3.82823451 -4 6 C-5.32 6 -6.64 6 -8 6 C-8 5.01 -8 4.02 -8 3 C-5.36 2.01 -2.72 1.02 0 0 Z " fill="#FEFE74" transform="translate(371,81)"/>
<path d="M0 0 C0.33 0.66 0.66 1.32 1 2 C0.19152271 3.16945792 -0.62189112 4.33550461 -1.4375 5.5 C-1.88996094 6.1496875 -2.34242188 6.799375 -2.80859375 7.46875 C-3.20175781 7.9740625 -3.59492188 8.479375 -4 9 C-4.33 9 -4.66 9 -5 9 C-5.3125 6.75 -5.3125 6.75 -5 4 C-2.5 1.6875 -2.5 1.6875 0 0 Z " fill="#DBD48E" transform="translate(150,243)"/>
<path d="M0 0 C0 0.66 0 1.32 0 2 C-0.66 2 -1.32 2 -2 2 C-2 2.66 -2 3.32 -2 4 C-5 5 -5 5 -8 4 C-8 3.34 -8 2.68 -8 2 C-5.09399739 0.74335022 -3.20395416 0 0 0 Z " fill="#FFFF77" transform="translate(349,90)"/>
<path d="M0 0 C3.875 1.875 3.875 1.875 5 3 C5.04063832 4.66617115 5.042721 6.33388095 5 8 C2.20127563 5.47211993 0.54226981 3.79588866 0 0 Z " fill="#CECC86" transform="translate(894,274)"/>
<path d="M0 0 C2.88437779 1.29299694 4.87219421 2.65941363 7 5 C6.67 5.99 6.34 6.98 6 8 C4.99403703 7.0479279 3.99538437 6.08812654 3 5.125 C2.443125 4.59132812 1.88625 4.05765625 1.3125 3.5078125 C0 2 0 2 0 0 Z " fill="#D4D4AA" transform="translate(828,189)"/>
<path d="M0 0 C0.33 0.66 0.66 1.32 1 2 C0.0625 4.125 0.0625 4.125 -1 6 C-2.65 6 -4.3 6 -6 6 C-6 5.34 -6 4.68 -6 4 C-4.03852126 2.61061923 -2.03833424 1.2739589 0 0 Z " fill="#FDFC74" transform="translate(241,149)"/>
<path d="M0 0 C0.33 0.66 0.66 1.32 1 2 C0.34 2 -0.32 2 -1 2 C-1.33 2.99 -1.66 3.98 -2 5 C-2.33 4.34 -2.66 3.68 -3 3 C-5.64 3.33 -8.28 3.66 -11 4 C-7.31265242 1.54176828 -4.30300029 0.98757384 0 0 Z " fill="#FEFD5A" transform="translate(411,70)"/>
<path d="M0 0 C2.31 0 4.62 0 7 0 C6.67 0.99 6.34 1.98 6 3 C3.36 3.33 0.72 3.66 -2 4 C-2 3.34 -2 2.68 -2 2 C-1.34 2 -0.68 2 0 2 C0 1.34 0 0.68 0 0 Z " fill="#FEFCAC" transform="translate(412,70)"/>
<path d="M0 0 C1.2380014 3.57644848 0.74926071 6.33694766 0 10 C-0.66 10 -1.32 10 -2 10 C-2.33 10.66 -2.66 11.32 -3 12 C-2.40075776 7.80530429 -1.42500059 3.99000166 0 0 Z " fill="#2D2D20" transform="translate(943,643)"/>
<path d="M0 0 C1.65 1.65 3.3 3.3 5 5 C3.68 5.33 2.36 5.66 1 6 C0.01 4.68 -0.98 3.36 -2 2 C-1.34 2 -0.68 2 0 2 C0 1.34 0 0.68 0 0 Z " fill="#BAAF69" transform="translate(843,204)"/>
<path d="M0 0 C0 0.66 0 1.32 0 2 C-0.66 2 -1.32 2 -2 2 C-2 2.99 -2 3.98 -2 5 C-3.98 5 -5.96 5 -8 5 C-3.16129032 0 -3.16129032 0 0 0 Z " fill="#FFFF5C" transform="translate(306,109)"/>
<path d="M0 0 C1.46534385 3.80989402 0.55203911 6.3241179 -1 10 C-1.99 10.495 -1.99 10.495 -3 11 C-2.32829194 7.1936543 -1.27253436 3.64793184 0 0 Z " fill="#313122" transform="translate(939,655)"/>
<path d="M0 0 C4.13333333 6.2 4.13333333 6.2 3.625 9.25 C3.41875 9.8275 3.2125 10.405 3 11 C0.60236815 8.60236815 0.65719414 7.66726502 0.375 4.375 C0.30023438 3.55773437 0.22546875 2.74046875 0.1484375 1.8984375 C0.09945312 1.27195312 0.05046875 0.64546875 0 0 Z " fill="#313122" transform="translate(84,655)"/>
<path d="M0 0 C0 0.66 0 1.32 0 2 C-0.66 2 -1.32 2 -2 2 C-1.67 2.99 -1.34 3.98 -1 5 C-1.99 5.66 -2.98 6.32 -4 7 C-4.6875 5.1875 -4.6875 5.1875 -5 3 C-3.38441968 0.84589291 -2.74502455 0 0 0 Z " fill="#E7DD6A" transform="translate(210,176)"/>
<path d="M0 0 C-2.35953094 2.35953094 -3.77895617 2.49141413 -7 3 C-7 2.34 -7 1.68 -7 1 C-7.66 0.67 -8.32 0.34 -9 0 C-5.93109813 -1.53445094 -3.29905734 -0.54984289 0 0 Z " fill="#FDF878" transform="translate(336,98)"/>
<path d="M0 0 C0.75 1.75 0.75 1.75 1 4 C-0.9375 6.25 -0.9375 6.25 -3 8 C-3.33 7.01 -3.66 6.02 -4 5 C-2.0625 2.3125 -2.0625 2.3125 0 0 Z " fill="#D7D286" transform="translate(158,230)"/>
<path d="M0 0 C-0.33 1.32 -0.66 2.64 -1 4 C-4 3 -4 3 -7 1 C-4 0 -4 0 0 0 Z " fill="#FFFF78" transform="translate(446,64)"/>
</svg>
